<?xml version="1.0" encoding="UTF-8"?>
<svg id="Layer_1" xmlns="http://www.w3.org/2000/svg" version="1.1" viewBox="0 0 100 40">
  <!-- Generator: Adobe Illustrator 30.2.1, SVG Export Plug-In . SVG Version: 2.1.1 Build 1)  -->
  <defs>
    <style>
      .st0 {
        fill: #c33;
      }

      .st1 {
        fill: none;
        stroke: #0d72ba;
        stroke-linecap: round;
        stroke-linejoin: round;
        stroke-width: 3.234px;
      }

      .st2 {
        fill: #0d72ba;
      }
    </style>
  </defs>
  <g id="leads-left">
    <path class="st1" d="M0,20l.596-1.407c.328-.774.864-1.944,1.192-2.599s.864-1.551,1.192-1.99.864-.923,1.192-1.077c.328-.154.864-.154,1.192,0s.864.638,1.192,1.077.864,1.334,1.192,1.99.864,1.826,1.192,2.599l1.192,2.814c.328.774.864,1.944,1.192,2.599s.864,1.551,1.192,1.99.864.923,1.192,1.077.864.154,1.192,0,.864-.638,1.192-1.077.864-1.334,1.192-1.99.864-1.826,1.192-2.599.864-2.04,1.192-2.814.864-1.944,1.192-2.599.864-1.551,1.192-1.99.864-.923,1.192-1.077.864-.154,1.192,0,.864.638,1.192,1.077.864,1.334,1.192,1.99c.328.656.864,1.826,1.192,2.599s.864,2.04,1.192,2.814.864,1.944,1.192,2.599.864,1.551,1.192,1.99.864.923,1.192,1.077l.596.28"/>
  </g>
  <g id="leads-right">
    <path class="st1" d="M53.455,27.352s.268-.126.596-.28c.328-.154.864-.638,1.192-1.077s.864-1.334,1.192-1.99c.328-.656.864-1.826,1.192-2.599s.864-2.04,1.192-2.814c.328-.774.864-1.944,1.192-2.599s.864-1.551,1.192-1.99c.328-.438.864-.923,1.192-1.077.328-.154.864-.154,1.192,0,.328.154.864.638,1.192,1.077.328.438.864,1.334,1.192,1.99.328.656.864,1.826,1.192,2.599.328.774.864,2.04,1.192,2.814s.864,1.944,1.192,2.599c.328.656.864,1.551,1.192,1.99.328.438.864.923,1.192,1.077s.864.154,1.192,0,.864-.638,1.192-1.077.864-1.334,1.192-1.99,1.077-1.826,1.666-2.599,2.446-1.407,4.126-1.407h5.815"/>
    <polygon class="st2" points="84.222 24.915 100 20 84.222 15.085 84.222 24.915"/>
  </g>
  <g id="artwork">
    <g id="tile">
      <path id="tile1" data-name="tile" class="st1" d="M33.877,27.352l.596-.28c.328-.154.864-.638,1.192-1.077s.864-1.334,1.192-1.99.864-1.826,1.192-2.599.864-2.04,1.192-2.814.864-1.944,1.192-2.599.864-1.551,1.192-1.99.864-.923,1.192-1.077.864-.154,1.192,0,.864.638,1.192,1.077.864,1.334,1.192,1.99c.328.656.864,1.826,1.192,2.599s.864,2.04,1.192,2.814.864,1.944,1.192,2.599.864,1.551,1.192,1.99.864.923,1.192,1.077l.596.28"/>
    </g>
  </g>
  <g id="ports">
    <circle id="port:left" class="st0" cy="20" r="1.5"/>
    <circle id="port:right" class="st0" cx="100" cy="20" r="1.5"/>
  </g>
</svg>