<?xml version="1.0" encoding="UTF-8"?>
<svg id="Layer_1" xmlns="http://www.w3.org/2000/svg" version="1.1" viewBox="0 0 100 40">
  <!-- Generator: Adobe Illustrator 30.2.1, SVG Export Plug-In . SVG Version: 2.1.1 Build 1)  -->
  <defs>
    <style>
      .st0 {
        fill: none;
        stroke: #c33;
        stroke-linecap: round;
        stroke-linejoin: round;
        stroke-width: 2.287px;
      }

      .st1 {
        fill: #c33;
      }
    </style>
  </defs>
  <g id="leads-left">
    <path class="st0" d="M0,20.041l.596-.703c.328-.387.864-.972,1.192-1.299s.864-.775,1.192-.995.864-.462,1.192-.538c.328-.077.864-.077,1.192,0s.864.319,1.192.538.864.667,1.192.995.864.913,1.192,1.299l1.192,1.407c.328.387.864.972,1.192,1.3s.864.776,1.192.995.864.462,1.192.538.864.077,1.192,0,.864-.319,1.192-.538.864-.667,1.192-.995.864-.913,1.192-1.299.864-1.02,1.192-1.407.864-.972,1.192-1.299.864-.775,1.192-.995.864-.462,1.192-.538.864-.077,1.192,0,.864.319,1.192.538.864.667,1.192.995c.328.328.864.913,1.192,1.299s.864,1.02,1.192,1.407.864.972,1.192,1.299.864.776,1.192.995.864.462,1.192.538l.596.14"/>
  </g>
  <g id="artwork">
    <g id="tile">
      <path id="tile1" class="st0" d="M33.877,23.717l.596-.14c.328-.077.864-.319,1.192-.538s.864-.667,1.192-.995.864-.913,1.192-1.3.864-1.02,1.192-1.407.864-.972,1.192-1.299.864-.775,1.192-.995.864-.462,1.192-.538.864-.077,1.192,0,.864.319,1.192.538.864.667,1.192.995c.328.328.864.913,1.192,1.299s.864,1.02,1.192,1.407.864.972,1.192,1.299.864.776,1.192.995.864.462,1.192.538l.596.14"/>
    </g>
  </g>
  <g id="ports">
    <circle id="port:left" class="st1" cy="20" r="1.5"/>
    <circle id="port:right" class="st1" cx="100" cy="20" r="1.5"/>
  </g>
  <g id="leads-right">
    <path class="st0" d="M53.455,23.717s.268-.063.596-.14c.328-.077.864-.319,1.192-.538s.864-.667,1.192-.995c.328-.328.864-.913,1.192-1.3s.864-1.02,1.192-1.407c.328-.387.864-.972,1.192-1.299s.864-.775,1.192-.995c.328-.219.864-.462,1.192-.538.328-.077.864-.077,1.192,0,.328.077.864.319,1.192.538.328.219.864.667,1.192.995.328.328.864.913,1.192,1.299.328.387.864,1.02,1.192,1.407s.864.972,1.192,1.299c.328.328.864.776,1.192.995.328.219.864.462,1.192.538s.864.077,1.192,0,.864-.319,1.192-.538.864-.667,1.192-.995,1.077-.913,1.666-1.299,2.446-.703,4.126-.703h5.815"/>
    <polygon class="st1" points="84.222 23.686 100 20 84.222 16.314 84.222 23.686"/>
  </g>
</svg>