<?xml version="1.0" encoding="UTF-8"?>
<svg id="Layer_1" xmlns="http://www.w3.org/2000/svg" version="1.1" viewBox="0 0 100 40">
  <!-- Generator: Adobe Illustrator 30.2.1, SVG Export Plug-In . SVG Version: 2.1.1 Build 1)  -->
  <defs>
    <style>
      .st0 {
        fill: none;
        stroke: #c33;
        stroke-linecap: round;
        stroke-linejoin: round;
        stroke-width: 4.574px;
      }

      .st1 {
        fill: #c33;
      }
    </style>
  </defs>
  <g id="leads-left">
    <path class="st0" d="M0,19.918l.596-2.814c.328-1.548.864-3.888,1.192-5.198s.864-3.102,1.192-3.98.864-1.846,1.192-2.154c.328-.308.864-.308,1.192,0s.864,1.276,1.192,2.154.864,2.668,1.192,3.98c.328,1.312.864,3.652,1.192,5.198l1.192,5.628c.328,1.548.864,3.888,1.192,5.198s.864,3.102,1.192,3.98c.328.878.864,1.846,1.192,2.154s.864.308,1.192,0,.864-1.276,1.192-2.154.864-2.668,1.192-3.98.864-3.652,1.192-5.198.864-4.08,1.192-5.628.864-3.888,1.192-5.198.864-3.102,1.192-3.98.864-1.846,1.192-2.154.864-.308,1.192,0,.864,1.276,1.192,2.154.864,2.668,1.192,3.98c.328,1.312.864,3.652,1.192,5.198s.864,4.08,1.192,5.628.864,3.888,1.192,5.198.864,3.102,1.192,3.98c.328.878.864,1.846,1.192,2.154l.596.56"/>
  </g>
  <g id="artwork">
    <g id="tile">
      <path id="tile1" class="st0" d="M33.877,34.622l.596-.56c.328-.308.864-1.276,1.192-2.154s.864-2.668,1.192-3.98.864-3.652,1.192-5.198.864-4.08,1.192-5.628.864-3.888,1.192-5.198.864-3.102,1.192-3.98.864-1.846,1.192-2.154.864-.308,1.192,0,.864,1.276,1.192,2.154.864,2.668,1.192,3.98c.328,1.312.864,3.652,1.192,5.198s.864,4.08,1.192,5.628.864,3.888,1.192,5.198.864,3.102,1.192,3.98c.328.878.864,1.846,1.192,2.154l.596.56"/>
    </g>
  </g>
  <g id="ports">
    <circle id="port:left" class="st1" cy="20" r="1.5"/>
    <circle id="port:right" class="st1" cx="100" cy="20" r="1.5"/>
  </g>
  <g id="leads-right">
    <path class="st0" d="M53.455,34.622s.268-.252.596-.56c.328-.308.864-1.276,1.192-2.154s.864-2.668,1.192-3.98c.328-1.312.864-3.652,1.192-5.198s.864-4.08,1.192-5.628c.328-1.548.864-3.888,1.192-5.198s.864-3.102,1.192-3.98c.328-.876.864-1.846,1.192-2.154.328-.308.864-.308,1.192,0,.328.308.864,1.276,1.192,2.154.328.876.864,2.668,1.192,3.98.328,1.312.864,3.652,1.192,5.198.328,1.548.864,4.08,1.192,5.628s.864,3.888,1.192,5.198c.328,1.312.864,3.102,1.192,3.98.328.876.864,1.846,1.192,2.154s.864.308,1.192,0,.864-1.276,1.192-2.154.864-2.668,1.192-3.98,1.077-3.652,1.666-5.198,2.446-2.814,4.126-2.814h5.815"/>
    <polygon class="st1" points="84.222 24.915 100 20 84.222 15.085 84.222 24.915"/>
  </g>
</svg>