<?xml version="1.0" encoding="UTF-8"?>
<svg id="Layer_1" xmlns="http://www.w3.org/2000/svg" version="1.1" viewBox="0 0 60 140">
  <!-- Generator: Adobe Illustrator 30.2.1, SVG Export Plug-In . SVG Version: 2.1.1 Build 1)  -->
  <defs>
    <style>
      .st0 {
        stroke-linecap: round;
        stroke-width: 3px;
      }

      .st0, .st1, .st2 {
        stroke: #000;
        stroke-linejoin: round;
      }

      .st0, .st1, .st3 {
        fill: none;
      }

      .st4 {
        fill: #c66;
      }

      .st1, .st2 {
        stroke-width: 2px;
      }

      .st2 {
        fill: #fff;
      }

      .st5 {
        display: none;
      }

      .st3 {
        stroke: #999;
        stroke-miterlimit: 10;
        stroke-width: .5px;
      }
    </style>
  </defs>
  <g id="guides" class="st5">
    <rect class="st3" x="-6.8" y="58.2" width="50" height="20"/>
  </g>
  <g id="ports">
    <circle id="port:left" class="st4" cx="30.1" r="3"/>
    <circle id="port:right" class="st4" cx="30.1" cy="140.1" r="3"/>
  </g>
  <g id="artwork">
    <g id="artwork1" class="st5">
      <g id="artwork2">
        <path class="st0" d="M30,23.4"/>
      </g>
    </g>
    <g>
      <path d="M21.5,43.6h17.6c.2,0,.3.2.4.4,0,.2.2.5.2.9v8.3c0,.6-.2,1.3-.4,2.3s-.6,1.7-1.1,2.2c-.9,1-2.1,1.5-3.5,1.5s-.7,0-1,0-.6-.2-.9-.3c-.2,0-.5-.3-.7-.5s-.4-.4-.6-.6c-.2-.2-.3-.5-.4-.6s-.2-.4-.3-.7-.2-.5-.2-.6,0-.3-.1-.5v-.3c-.3,1.5-.8,2.8-1.6,3.7-.8.9-1.9,1.4-3.3,1.4-2.1,0-3.6-.9-4.6-2.7-.6-1.2-.9-3-.9-5.5v-6.9c0-.5.1-.9.3-1.1.2-.2.5-.3,1-.3h.1ZM22.6,47.5v3.8c0,2.1.4,3.6,1.3,4.3.5.4,1.1.7,1.9.7s.8,0,1.2-.2c.4,0,.7-.3,1.1-.6s.7-.8.9-1.4c.2-.6.4-1.4.4-2.3v-4.2h-6.8,0ZM31.5,47.5v2.7c0,1.2,0,2,.2,2.7.1.6.4,1.2.9,1.8.7.5,1.4.8,2.1.8,1.1,0,1.9-.6,2.3-1.7.3-.8.4-1.9.4-3.3v-3h-6,0Z"/>
      <path d="M21.5,64.4h17.6c.2,0,.3.2.5.4.2.2.3.5.3.9v7.7c0,.4,0,1-.2,1.7,0,.7-.3,1.3-.5,1.8-.3.5-.6,1-1,1.4-1,1.1-2.5,1.6-4.3,1.6s-1.5,0-2.2-.3c-.6-.2-1.2-.5-1.6-.8s-.8-.7-1.1-1.2-.5-1-.7-1.4c-.1-.4-.2-.9-.3-1.5,0-.6-.1-1.1-.1-1.4v-4.9h-6.3c-.9,0-1.3-.4-1.3-1.3v-2c0-.2.2-.3.4-.5.2-.2.5-.2.9-.2h0ZM30,68.3v3.8c0,.8,0,1.4.3,1.9s.4.9.6,1.2c.2.3.5.5.9.6.4,0,.7.2,1,.2h1c.8,0,1.4,0,1.9-.4.5-.2.9-.5,1.1-1,.2-.4.4-.9.4-1.3v-5.1h-7.3,0Z"/>
      <path d="M21.5,84.2h17.1c.8,0,1.2.4,1.2,1.3v10.8c0,.5,0,.8-.3,1s-.5.3-.9.3h-.4c-.8,0-1.3-.4-1.3-1.3v-8h-5.6v6.8c0,.8-.4,1.2-1.3,1.2s-.7,0-1-.2-.4-.3-.4-.5v-7.4h-7.2c-.8,0-1.2-.4-1.2-1.2v-1.5c0-.5.1-.9.4-1,.2-.2.5-.3.9-.3Z"/>
    </g>
    <rect class="st1" x="9.8" y="21.8" width="40.5" height="96.5"/>
  </g>
  <g id="leads">
    <path class="st2" d="M30.1,0v20.6"/>
    <path class="st2" d="M30.1,118.3v21.7"/>
  </g>
</svg>