<?xml version="1.0" encoding="UTF-8"?>
<svg id="Layer_1" xmlns="http://www.w3.org/2000/svg" version="1.1" viewBox="0 0 80 80">
  <!-- Generator: Adobe Illustrator 30.2.1, SVG Export Plug-In . SVG Version: 2.1.1 Build 1)  -->
  <defs>
    <style>
      .st0 {
        fill: #c66;
      }

      .st1 {
        display: none;
        stroke: #000;
        stroke-miterlimit: 10;
        stroke-width: .2px;
      }

      .st1, .st2 {
        fill: none;
      }

      .st3, .st4 {
        fill: #cccbcb;
      }

      .st4 {
        stroke-width: 1.9px;
      }

      .st4, .st2 {
        stroke: #231f20;
        stroke-linejoin: round;
      }

      .st2 {
        stroke-width: 1.6px;
      }
    </style>
  </defs>
  <g id="artwork">
    <path class="st3" d="M6.5,0v39c0,8.1,6.5,14.6,14.6,14.6h58.9v-27.2h-43.2c-1.7,0-3.1-1.4-3.1-3.1V0"/>
    <g>
      <path class="st4" d="M80.8,44.1"/>
      <path class="st2" d="M80,26.4h-43.2c-1.7,0-3.1-1.4-3.1-3.1V0"/>
      <path class="st2" d="M6.5,0v39c0,8.1,6.5,14.6,14.6,14.6h58.9"/>
    </g>
  </g>
  <g id="ports">
    <path id="port:right" class="st0" d="M80,37c1.7,0,3.1,1.3,3.1,3s-1.4,3-3.1,3-3-1.3-3-3,1.3-3,3-3Z"/>
    <g id="ports1">
      <circle id="port:right1" class="st0" cx="20.1" r="3"/>
    </g>
  </g>
  <rect class="st1" x="20.1" width="60" height="40"/>
</svg>