<?xml version="1.0" encoding="UTF-8"?>
<svg id="Layer_1" xmlns="http://www.w3.org/2000/svg" version="1.1" viewBox="0 0 120 40">
  <!-- Generator: Adobe Illustrator 30.2.1, SVG Export Plug-In . SVG Version: 2.1.1 Build 1)  -->
  <defs>
    <style>
      .st0 {
        fill: #cccbcb;
      }

      .st0, .st1, .st2, .st3, .st4 {
        stroke: #000;
      }

      .st0, .st1, .st2, .st3, .st4, .st5 {
        stroke-linejoin: round;
      }

      .st0, .st2, .st3 {
        stroke-width: 1.9px;
      }

      .st1 {
        stroke-width: 3px;
      }

      .st1, .st6, .st2, .st3, .st4, .st5 {
        fill: none;
      }

      .st1, .st2, .st4 {
        stroke-linecap: round;
      }

      .st7 {
        fill: #c66;
      }

      .st6 {
        stroke: #c03;
        stroke-miterlimit: 10;
        stroke-width: .9px;
      }

      .st4 {
        stroke-width: 1.7px;
      }

      .st5 {
        stroke: #999;
        stroke-width: .2px;
      }

      .st8 {
        display: none;
      }
    </style>
  </defs>
  <g id="guide" class="st8">
    <line class="st5" x1="120" y1="0" x2="120" y2="40"/>
    <line class="st5" x1="0" y1="40" x2="0" y2="0"/>
    <line class="st5" x1="20" y1="0" x2="20" y2="40"/>
    <line class="st5" x1="40" y1="0" x2="40" y2="40"/>
    <line class="st5" x1="60" y1="0" x2="60" y2="40"/>
    <line class="st5" x1="80" y1="0" x2="80" y2="40"/>
    <line class="st5" x1="100" y1="0" x2="100" y2="40"/>
    <line class="st5" x1="0" y1="0" x2="120" y2="0"/>
    <line class="st5" x1="0" y1="20" x2="120" y2="20"/>
    <line class="st5" x1="0" y1="40" x2="120" y2="40"/>
  </g>
  <g id="ports">
    <circle id="port:left" class="st7" cx="0" cy="20" r="3"/>
    <circle id="port:right" class="st7" cx="120" cy="20" r="3"/>
  </g>
  <g id="stretch">
    <line id="stretch:v" class="st6" x1="60" x2="60" y2="40"/>
  </g>
  <g id="leads">
    <line class="st1" x1="3.2" y1="20" x2="0" y2="20"/>
    <line class="st1" x1="120" y1="20" x2="116.2" y2="20"/>
  </g>
  <g id="artwork">
    <g>
      <path class="st4" d="M2.6,20"/>
      <path class="st0" d="M116.3,27.5c-2.1,0-3.9-3.4-3.9-7.5s1.7-7.5,3.9-7.5H5.5c-2.1,0-3.9,3.4-3.9,7.5s1.7,7.5,3.9,7.5h110.8Z"/>
      <g>
        <path class="st3" d="M119.9,22.3c-.5,3-1.9,5.2-3.6,5.2s-3.9-3.4-3.9-7.5,1.7-7.5,3.9-7.5,3.2,2.2,3.6,5.2"/>
        <path class="st0" d="M119.9,22.3"/>
      </g>
      <path class="st2" d="M116.8,20"/>
    </g>
  </g>
</svg>