<?xml version="1.0" encoding="UTF-8"?>
<svg id="Layer_1" xmlns="http://www.w3.org/2000/svg" version="1.1" viewBox="0 0 40 40">
  <!-- Generator: Adobe Illustrator 30.3.0, SVG Export Plug-In . SVG Version: 2.1.3 Build 182)  -->
  <defs>
    <style>
      .st0, .st1, .st2, .st3, .st4 {
        stroke: #000;
        stroke-linejoin: round;
      }

      .st0, .st3 {
        stroke-width: 1.9px;
      }

      .st0, .st4 {
        fill: #cccbcb;
      }

      .st1 {
        stroke-width: 3px;
      }

      .st1, .st5, .st2, .st3 {
        fill: none;
      }

      .st1, .st3 {
        stroke-linecap: round;
      }

      .st6 {
        fill: #c66;
      }

      .st5 {
        stroke: #c03;
        stroke-miterlimit: 10;
        stroke-width: .9px;
      }

      .st2, .st4 {
        stroke-width: 1.6px;
      }
    </style>
  </defs>
  <g id="ports">
    <circle id="port:left" class="st6" cy="20" r="3"/>
    <circle id="port:right" class="st6" cx="40" cy="20" r="3"/>
  </g>
  <g id="artwork">
    <g>
      <path class="st4" d="M31.1,38.7c-5.2,0-9.6-8.4-9.6-18.7S25.8,1.3,31.1,1.3H11.3C6.1,1.3,1.7,9.7,1.7,20s4.3,18.7,9.6,18.7h19.8Z"/>
      <g>
        <path class="st2" d="M40.2,25.6c-1.2,7.6-4.8,13.1-9.1,13.1s-9.6-8.4-9.6-18.7S25.8,1.3,31.1,1.3s8,5.5,9.1,13.1"/>
        <path class="st0" d="M40.2,25.6"/>
      </g>
      <path class="st3" d="M32.2,20"/>
    </g>
  </g>
  <g id="stretch">
    <line id="stretch:v" class="st5" x1="20" y1="0" x2="20" y2="40"/>
  </g>
  <g id="leads">
    <line class="st1" x1="1" y1="20" y2="20"/>
    <line class="st1" x1="40" y1="20" x2="32.2" y2="20"/>
  </g>
</svg>