<?xml version="1.0" encoding="UTF-8"?>
<svg id="Layer_1" xmlns="http://www.w3.org/2000/svg" version="1.1" viewBox="0 0 40 40">
  <!-- Generator: Adobe Illustrator 30.3.0, SVG Export Plug-In . SVG Version: 2.1.3 Build 182)  -->
  <defs>
    <style>
      .st0 {
        stroke-width: 1.9px;
      }

      .st0, .st1, .st2, .st3 {
        stroke: #000;
        stroke-linejoin: round;
      }

      .st0, .st3 {
        fill: #cccbcb;
      }

      .st1 {
        stroke-linecap: round;
        stroke-width: 3px;
      }

      .st1, .st4, .st2 {
        fill: none;
      }

      .st5 {
        fill: #c66;
      }

      .st4 {
        stroke: #c03;
        stroke-miterlimit: 10;
        stroke-width: .9px;
      }

      .st2, .st3 {
        stroke-width: 1.6px;
      }
    </style>
  </defs>
  <g id="ports">
    <circle id="port:left" class="st5" cy="20" r="3"/>
    <circle id="port:right" class="st5" cx="40" cy="20" r="3"/>
  </g>
  <g id="stretch">
    <line id="stretch:v" class="st4" x1="20" y1="0" x2="20" y2="40"/>
  </g>
  <g id="artwork">
    <g>
      <path class="st3" d="M33.5,33.6c-3.8,0-7-6.1-7-13.6s3.1-13.6,7-13.6H8.5c-3.8,0-7,6.1-7,13.6s3.1,13.6,7,13.6h25Z"/>
      <g>
        <path class="st2" d="M40.1,24.1c-.9,5.5-3.5,9.5-6.6,9.5s-7-6.1-7-13.6,3.1-13.6,7-13.6,5.8,4,6.6,9.5"/>
        <path class="st0" d="M40.1,24.1"/>
      </g>
      <path class="st1" d="M34.3,20"/>
    </g>
  </g>
  <g id="leads">
    <line class="st1" x1=".5" y1="20" y2="20"/>
    <line class="st1" x1="40" y1="20" x2="33.2" y2="20"/>
  </g>
</svg>