<?xml version="1.0" encoding="UTF-8"?>
<svg id="Layer_1" xmlns="http://www.w3.org/2000/svg" version="1.1" viewBox="0 0 99.5 40">
  <!-- Generator: Adobe Illustrator 30.2.1, SVG Export Plug-In . SVG Version: 2.1.1 Build 1)  -->
  <defs>
    <style>
      .st0 {
        fill: #c66;
      }

      .st1 {
        stroke: #c03;
        stroke-width: .9px;
      }

      .st1, .st2, .st3, .st4 {
        fill: none;
      }

      .st1, .st3 {
        stroke-miterlimit: 10;
      }

      .st2 {
        stroke: #231f20;
        stroke-linecap: round;
        stroke-width: 3px;
      }

      .st2, .st4 {
        stroke-linejoin: round;
      }

      .st3 {
        stroke: #000;
        stroke-width: 2px;
      }

      .st4 {
        stroke: #999;
        stroke-width: .5px;
      }

      .st5 {
        display: none;
      }
    </style>
  </defs>
  <g id="Layer_2" class="st5">
    <rect class="st4" width="8.7" height="20"/>
  </g>
  <g id="Layer_11">
    <g id="ports">
      <circle id="port:left" class="st0" cy="10.2" r="3"/>
      <circle id="port:right" class="st0" cx="99.5" cy="10.2" r="3"/>
      <circle id="port:left1" class="st0" cy="29.8" r="3"/>
      <circle id="port:right1" class="st0" cx="99.5" cy="29.8" r="3"/>
    </g>
    <g id="stretch">
      <line id="stretch:v2" class="st1" x1="60" x2="60" y2="40"/>
      <line id="stretch:v1" class="st1" x1="40" x2="40" y2="40"/>
    </g>
    <g id="leads" class="st5">
      <line class="st2" x1="10.2" y1="20" y2="20"/>
      <line class="st2" x1="120" y1="20" x2="107.2" y2="20"/>
    </g>
    <g id="artwork">
      <g>
        <g>
          <g>
            <path d="M29.2,18c-2.2-1.7-4.8-3.2-9.2-3.2v2c3.5,0,5.7,1.1,7.6,2.4.4-.3,1.4-1,1.6-1.2Z"/>
            <path d="M31.3,21.6c-.1.1-.3.2-.5.4,2.2,1.7,4.8,3.2,9.2,3.2v-2c-3.5,0-5.7-1.1-7.6-2.4-.4.3-.8.6-1.2.9h0Z"/>
          </g>
          <path class="st3" d="M30,20"/>
          <path d="M20,25.1v-2c4.6,0,6.9-1.9,9.4-3.9,2.6-2.1,5.3-4.3,10.6-4.3v2c-4.6,0-6.9,1.9-9.4,3.9-2.6,2.1-5.3,4.3-10.6,4.3Z"/>
        </g>
        <path class="st3" d="M50,20"/>
        <g>
          <g>
            <path d="M10.9,19.3c.4-.4.8-.9,1.2-1.3-.5-.6-1.1-1.2-1.6-1.8C7.4,12.6,4.1,8.9,0,8.9v2c3.6,0,6.4,3.3,9.5,6.8.5.5.9,1.1,1.4,1.6Z"/>
            <path d="M13.4,21.9c2,1.8,4.2,3.2,6.6,3.2v-2c-1.9,0-3.7-1-5.3-2.5-.4.4-.9.8-1.3,1.3Z"/>
          </g>
          <path d="M0,31.1v-2c3.6,0,6.4-3.3,9.5-6.8,3.1-3.6,6.4-7.5,10.5-7.5v2c-3.6,0-6.4,3.5-9.5,7-3.1,3.6-6.4,7.3-10.5,7.3Z"/>
        </g>
      </g>
      <g>
        <g>
          <g>
            <path d="M71.3,21.6c0,.1-.3.2-.5.4,2.2,1.7,4.8,3.2,9.2,3.2v-2c-3.5,0-5.7-1.1-7.6-2.4-.4.3-.8.6-1.2.9h0Z"/>
            <path d="M68.7,18.4c0-.1.3-.2.5-.4-2.2-1.7-4.8-3.2-9.2-3.2v2c3.5,0,5.7,1.1,7.6,2.4.4-.3.8-.6,1.2-.9h0Z"/>
          </g>
          <path class="st3" d="M70,20"/>
          <path d="M80,14.9v2c-4.6,0-6.9,1.9-9.4,3.9-2.6,2.1-5.3,4.3-10.6,4.3v-2c4.6,0,6.9-1.9,9.4-3.9,2.6-2.1,5.3-4.3,10.6-4.3Z"/>
        </g>
        <g>
          <g>
            <path d="M89.1,20.7c-.4.4-.8.9-1.2,1.3.5.6,1.1,1.2,1.6,1.8,3.1,3.6,6.4,7.3,10.5,7.3v-2c-3.6,0-6.4-3.3-9.5-6.8-.5-.5-.9-1.1-1.4-1.6Z"/>
            <path d="M86.6,18.1c-2-1.8-4.2-3.2-6.6-3.2v2c1.9,0,3.7,1,5.3,2.5.4-.4.9-.8,1.3-1.3Z"/>
          </g>
          <path d="M100,8.9v2c-3.6,0-6.4,3.3-9.5,6.8-3.1,3.6-6.4,7.5-10.5,7.5v-2c3.6,0,6.4-3.5,9.5-7,3.1-3.6,6.4-7.3,10.5-7.3Z"/>
        </g>
      </g>
      <g id="tile">
        <g>
          <path d="M48.7,18.5c0-.1.3-.2.5-.4-2.2-1.7-4.8-3.2-9.2-3.2v2c3.5,0,5.7,1.1,7.6,2.4.4-.3.8-.6,1.2-.9h0Z"/>
          <path d="M51.3,21.7c0,.1-.3.2-.5.4,2.2,1.7,4.8,3,9.2,3v-2c-3.5,0-5.7-.9-7.6-2.2-.4.3-.8.6-1.2.9h0Z"/>
        </g>
        <path d="M40,25.2v-2c4.6,0,6.9-1.9,9.4-3.9,2.6-2.1,5.3-4.5,10.6-4.5v2c-4.6,0-6.9,2.1-9.4,4.1-2.6,2.1-5.3,4.3-10.6,4.3Z"/>
      </g>
    </g>
  </g>
</svg>