<?xml version="1.0" encoding="UTF-8"?>
<svg id="Layer_1" xmlns="http://www.w3.org/2000/svg" version="1.1" viewBox="0 0 120 100">
  <!-- Generator: Adobe Illustrator 30.2.1, SVG Export Plug-In . SVG Version: 2.1.1 Build 1)  -->
  <defs>
    <style>
      .st0 {
        stroke-linecap: round;
        stroke-width: 3px;
      }

      .st0, .st1 {
        stroke: #000;
        stroke-linejoin: round;
      }

      .st0, .st1, .st2 {
        fill: none;
      }

      .st3 {
        fill: #c66;
      }

      .st1 {
        stroke-width: 6px;
      }

      .st2 {
        stroke: #999;
        stroke-miterlimit: 10;
        stroke-width: .2px;
      }

      .st4 {
        display: none;
      }
    </style>
  </defs>
  <g id="guides" class="st4">
    <rect class="st2" x="6.2" y="50.1" width="50" height="50"/>
  </g>
  <g id="ports">
    <circle id="port:2" class="st3" cx="120" cy="50" r="3"/>
    <circle id="port:1" class="st3" cy="50" r="3"/>
  </g>
  <g id="artwork">
    <polygon class="st0" points="103.3 50 17.8 4.5 17.8 95.5 103.3 50"/>
    <path d="M45.1,59.3v-8.8h-2.6v5.5h-6.8c-.6-1.7-.9-3.7-.9-5.5,0-5.5,5.5-9.8,12.3-9.8s12.2,4.2,12.2,9.7-1,5.8-2.8,7.9l3.4.6c1.5-2.3,2-5.6,2-8.3,0-8.1-7.3-13.6-14.9-13.6s-15,5.5-15,13.6.8,5.9,2,8.7h10.9"/>
  </g>
  <g id="leads">
    <line class="st1" y1="50" x2="17.6" y2="50"/>
    <line class="st1" x1="100.3" y1="50" x2="120" y2="50"/>
  </g>
</svg>