<?xml version="1.0" encoding="UTF-8"?>
<svg id="Layer_1" xmlns="http://www.w3.org/2000/svg" version="1.1" viewBox="0 0 120 40">
  <!-- Generator: Adobe Illustrator 30.2.1, SVG Export Plug-In . SVG Version: 2.1.1 Build 1)  -->
  <defs>
    <style>
      .st0 {
        fill: #c66;
      }

      .st1, .st2, .st3, .st4 {
        fill: none;
      }

      .st1, .st3 {
        stroke-linecap: round;
      }

      .st1, .st3, .st5, .st4, .st6 {
        stroke: #231f20;
        stroke-linejoin: round;
      }

      .st1, .st5 {
        stroke-width: 1.9px;
      }

      .st2 {
        stroke: #c03;
        stroke-miterlimit: 10;
        stroke-width: .9px;
      }

      .st3 {
        stroke-width: 3px;
      }

      .st5, .st6 {
        fill: #cccbcb;
      }

      .st4, .st6 {
        stroke-width: 1.6px;
      }
    </style>
  </defs>
  <g id="ports">
    <circle id="port:left" class="st0" cy="20" r="3"/>
    <circle id="port:right" class="st0" cx="120" cy="20" r="3"/>
  </g>
  <g id="artwork">
    <g>
      <path class="st1" d="M11,20"/>
      <path class="st6" d="M106.1,38.7c-5.2,0-9.6-8.4-9.6-18.7S100.8,1.3,106.1,1.3H18.3c-5.2,0-9.6,8.4-9.6,18.7s4.3,18.7,9.6,18.7c0,0,87.8,0,87.8,0Z"/>
      <g>
        <path class="st4" d="M115.2,25.6c-1.2,7.6-4.8,13.1-9.1,13.1s-9.6-8.4-9.6-18.7S100.8,1.3,106.1,1.3s8,5.5,9.1,13.1"/>
        <path class="st5" d="M115.2,25.6"/>
      </g>
      <path class="st1" d="M107.2,20"/>
    </g>
  </g>
  <g id="stretch">
    <line id="stretch:v" class="st2" x1="60" x2="60" y2="40"/>
  </g>
  <g id="leads">
    <line class="st3" x1="8" y1="20" y2="20"/>
    <line class="st3" x1="120" y1="20" x2="107.2" y2="20"/>
  </g>
</svg>