<?xml version="1.0" encoding="UTF-8"?>
<svg id="Layer_1" xmlns="http://www.w3.org/2000/svg" version="1.1" viewBox="0 0 120 100">
  <!-- Generator: Adobe Illustrator 30.2.1, SVG Export Plug-In . SVG Version: 2.1.1 Build 1)  -->
  <defs>
    <style>
      .st0 {
        fill: #c66;
      }

      .st1 {
        stroke: #000;
        stroke-linecap: round;
        stroke-linejoin: round;
        stroke-width: 2px;
      }

      .st1, .st2 {
        fill: none;
      }

      .st2 {
        stroke: #999;
        stroke-miterlimit: 10;
        stroke-width: .2px;
      }

      .st3 {
        display: none;
      }
    </style>
  </defs>
  <g id="guides" class="st3">
    <rect class="st2" x="6.2" y="50.1" width="50" height="50"/>
  </g>
  <g id="ports">
    <circle id="port:2" class="st0" cx="120" cy="50" r="3"/>
    <circle id="port:1" class="st0" cy="50" r="3"/>
  </g>
  <g id="artwork">
    <polygon class="st1" points="103.3 50 17.8 4.5 17.8 95.5 103.3 50"/>
    <g>
      <path d="M43.7-5.3l2.2,1.2c.3.2.6.3.9.5l3.4,1.8.9-1.6-15.3-8.1-.9,1.6,3.4,1.8c.3.2.6.3.9.5l2.3,1.2-8.3,15.7,2.2,1.2,8.3-15.7"/>
      <path d="M75.6,9.3l-1.8-1-6.5,6.7c-1.8,1.9-5.3,5.5-6.1,6.7h0s.6-1.4,1.9-8.1l2.1-9.9-2-1.1-6.4,6.7c-1.6,1.6-5.2,5.4-6.1,6.7h0c.4-1.1,1.1-3.9,1.3-4.8l1-4.8,1.7-8.2-2.2-1.1-4.2,20.2,2,1.1,7.2-7.4c1.5-1.6,4.6-4.7,5.4-6h0c-.3.8-1,3.5-1.6,6.3l-2.5,11.6,2.2,1.2,14.4-14.8"/>
      <path d="M83.3,15.2c2.8,1.5,3.7,3.9,2.5,6.1s-3.5,2.8-6.4,1.3l-3.6-1.9,3.9-7.3,3.6,1.9M79.4,24.4c3.1,1.7,7,.8,8.5-2s.2-6.4-3.3-8.3l-6.3-3.3-9.3,17.5,2.2,1.2,3.9-7.3,4.2,2.2h.1Z"/>
      <path d="M95.5,33.9l-6.2-3.3,4.1-3.7c1.3-1.2,3.2-2.9,3.9-3.8h0c0,.4-.3,1.1-.6,3.1l-1.1,7.7M99.5,22l-2.2-1.2-15.9,14,1.9,1,4.7-4.1,7.3,3.9-.8,6.2,2.3,1.2,2.7-21Z"/>
    </g>
  </g>
  <g id="leads">
    <line class="st1" y1="50" x2="17.6" y2="50"/>
    <line class="st1" x1="101.9" y1="50" x2="120" y2="50"/>
  </g>
</svg>