<?xml version="1.0" encoding="UTF-8"?>
<svg id="Layer_1" xmlns="http://www.w3.org/2000/svg" version="1.1" viewBox="0 0 100 60">
  <!-- Generator: Adobe Illustrator 30.2.1, SVG Export Plug-In . SVG Version: 2.1.1 Build 1)  -->
  <defs>
    <style>
      .st0 {
        fill: none;
        stroke: #231f20;
        stroke-linejoin: round;
        stroke-width: 2px;
      }

      .st1 {
        fill: #c33;
      }
    </style>
  </defs>
  <g id="leads">
    <line id="lead:0" class="st0" x1="50" x2="50" y2="10"/>
  </g>
  <g id="artwork">
    <rect class="st0" x="9.762" y="10" width="80.238" height="40"/>
    <g>
      <path d="M37.704,20.773h-2.283v14.392c0,.45,0,3-3.133,3-1.115,0-2.496-.477-3.398-1.488l-.373,1.992c.637.319,2.31,1.115,4.542,1.115,2.733,0,4.646-1.54,4.646-4.54v-14.471"/>
      <path d="M48.513,22.26c2.921,0,4.725,1.619,4.725,3.877,0,2.096-1.673,3.85-4.725,3.85h-3.744v-7.727h3.744M49.282,31.527c3.294,0,6.108-2.417,6.108-5.39,0-2.842-2.629-5.365-6.294-5.365h-6.61v18.427h2.363v-7.673h4.433Z"/>
      <path d="M66.632,32.296h-6.585l1.725-4.806c.558-1.565,1.381-3.823,1.567-4.804h.027c.054.371.24,1.035.85,2.787l2.417,6.823M64.746,20.773h-2.337l-6.929,18.427h1.965l2.044-5.417h7.727l2.019,5.417h2.442l-6.929-18.427h-.002Z"/>
    </g>
  </g>
  <g id="ports">
    <circle id="port:1" class="st1" cx="50" r="1.5"/>
  </g>
</svg>