<?xml version="1.0" encoding="UTF-8"?>
<svg id="Layer_1" xmlns="http://www.w3.org/2000/svg" version="1.1" viewBox="0 0 120 40">
  <!-- Generator: Adobe Illustrator 30.2.1, SVG Export Plug-In . SVG Version: 2.1.1 Build 1)  -->
  <defs>
    <style>
      .st0 {
        stroke-width: 1.9px;
      }

      .st0, .st1, .st2, .st3 {
        stroke: #000;
      }

      .st0, .st1, .st2, .st3, .st4 {
        stroke-linejoin: round;
      }

      .st0, .st2 {
        fill: #cccbcb;
      }

      .st5 {
        fill: #c66;
      }

      .st6 {
        stroke: #c03;
        stroke-miterlimit: 10;
        stroke-width: .9px;
      }

      .st6, .st1, .st3, .st4 {
        fill: none;
      }

      .st1 {
        stroke-linecap: round;
        stroke-width: 2px;
      }

      .st4 {
        stroke: #999;
        stroke-width: .2px;
      }

      .st7 {
        display: none;
      }
    </style>
  </defs>
  <g id="guide" class="st7">
    <line class="st4" x1="120" x2="120" y2="40"/>
    <line class="st4" y1="40"/>
    <line class="st4" x1="20" x2="20" y2="40"/>
    <line class="st4" x1="40" x2="40" y2="40"/>
    <line class="st4" x1="60" x2="60" y2="40"/>
    <line class="st4" x1="80" x2="80" y2="40"/>
    <line class="st4" x1="100" x2="100" y2="40"/>
    <line class="st4" x2="120"/>
    <line class="st4" y1="20" x2="120" y2="20"/>
    <line class="st4" y1="40" x2="120" y2="40"/>
  </g>
  <g id="ports">
    <circle id="port:left" class="st5" cy="20" r="3"/>
    <circle id="port:right" class="st5" cx="120" cy="20" r="3"/>
  </g>
  <g id="stretch">
    <line id="stretch:v" class="st6" x1="60" x2="60" y2="40"/>
  </g>
  <g id="artwork">
    <g>
      <path class="st2" d="M113.5,33.6c-3.8,0-7-6.1-7-13.6s3.1-13.6,7-13.6H9.5c-3.8,0-7,6.1-7,13.6s3.1,13.6,7,13.6h104Z"/>
      <g>
        <path class="st3" d="M120.1,24.1c-.9,5.5-3.5,9.5-6.6,9.5s-7-6.1-7-13.6,3.1-13.6,7-13.6,5.8,4,6.6,9.5"/>
        <path class="st0" d="M120.1,24.1"/>
      </g>
    </g>
  </g>
  <g id="leads">
    <line class="st1" x1="2" y1="20" y2="20"/>
    <line class="st1" x1="120" y1="20" x2="114.3" y2="20"/>
  </g>
</svg>