<?xml version="1.0" encoding="UTF-8"?>
<svg id="Layer_1" xmlns="http://www.w3.org/2000/svg" version="1.1" viewBox="0 0 40 40">
  <!-- Generator: Adobe Illustrator 30.3.0, SVG Export Plug-In . SVG Version: 2.1.3 Build 182)  -->
  <defs>
    <style>
      .st0 {
        fill: #c66;
      }

      .st1 {
        stroke: #c03;
        stroke-miterlimit: 10;
        stroke-width: .9px;
      }

      .st1, .st2, .st3 {
        fill: none;
      }

      .st2 {
        stroke-linecap: round;
        stroke-width: 2px;
      }

      .st2, .st4 {
        stroke: #000;
      }

      .st2, .st4, .st3 {
        stroke-linejoin: round;
      }

      .st5 {
        fill: #fff;
      }

      .st4 {
        fill: #cccbcb;
      }

      .st3 {
        stroke: #999;
        stroke-width: .2px;
      }

      .st6 {
        display: none;
      }
    </style>
  </defs>
  <g id="guide" class="st6">
    <line class="st3" x1="80" x2="80" y2="40"/>
    <line class="st3" x1="-40" y1="40" x2="-40"/>
    <line class="st3" x1="-20" x2="-20" y2="40"/>
    <line class="st3" y2="40"/>
    <line class="st3" x1="20" x2="20" y2="40"/>
    <line class="st3" x1="40" x2="40" y2="40"/>
    <line class="st3" x1="60" x2="60" y2="40"/>
    <line class="st3" x1="-40" x2="80"/>
    <line class="st3" x1="-40" y1="20" x2="80" y2="20"/>
    <line class="st3" x1="-40" y1="40" x2="80" y2="40"/>
  </g>
  <g id="ports">
    <circle id="port:left" class="st0" cy="20" r="3"/>
  </g>
  <g id="artwork">
    <path class="st4" d="M27.4,37.2c-3.4-2.8-5.9-9.5-5.9-17.2s2.2-13.9,5.5-16.9"/>
    <path class="st4" d="M27,3.1c1.3-1.2,2.7-1.8,4.1-1.8H11.3C6.1,1.3,1.7,9.7,1.7,20s4.3,18.7,9.6,18.7h19.8c-1.3,0-2.5-.5-3.7-1.5l-.4-34.1Z"/>
    <path class="st5" d="M34.5,39.4c-.3-8.8-3.3-9.1-3.3-18.8s3.2-10.3,3.3-19.8h-9.8c-.1,9.6-3.2,9.8-3.2,19.6s3,10,3.3,19.1h9.7Z"/>
  </g>
  <g id="stretch">
    <line id="stretch:v" class="st1" x1="20" x2="20" y2="40"/>
  </g>
  <g id="leads">
    <line class="st2" x1="1.2" y1="20" y2="20"/>
  </g>
</svg>