<?xml version="1.0" encoding="UTF-8"?>
<svg id="Layer_1" xmlns="http://www.w3.org/2000/svg" version="1.1" viewBox="0 0 40 40">
  <!-- Generator: Adobe Illustrator 30.6.0, SVG Export Plug-In . SVG Version: 2.1.4 Build 109)  -->
  <defs>
    <style>
      .st0 {
        fill: #c66;
      }

      .st1 {
        stroke: #c03;
        stroke-miterlimit: 10;
        stroke-width: .9px;
      }

      .st1, .st2, .st3 {
        fill: none;
      }

      .st2 {
        stroke-linecap: round;
        stroke-width: 2px;
      }

      .st2, .st4 {
        stroke: #000;
      }

      .st2, .st4, .st3 {
        stroke-linejoin: round;
      }

      .st5 {
        fill: #fff;
      }

      .st4 {
        fill: #cccbcb;
      }

      .st3 {
        stroke: #999;
        stroke-width: .2px;
      }

      .st6 {
        display: none;
      }
    </style>
  </defs>
  <g id="guide" class="st6">
    <line class="st3" x1="80" y1="0" x2="80" y2="40"/>
    <line class="st3" x1="-40" y1="40" x2="-40" y2="0"/>
    <line class="st3" x1="-20" y1="0" x2="-20" y2="40"/>
    <line class="st3" x1="0" y1="0" x2="0" y2="40"/>
    <line class="st3" x1="20" y1="0" x2="20" y2="40"/>
    <line class="st3" x1="40" y1="0" x2="40" y2="40"/>
    <line class="st3" x1="60" y1="0" x2="60" y2="40"/>
    <line class="st3" x1="-40" y1="0" x2="80" y2="0"/>
    <line class="st3" x1="-40" y1="20" x2="80" y2="20"/>
    <line class="st3" x1="-40" y1="40" x2="80" y2="40"/>
  </g>
  <g id="ports">
    <circle id="port:left" class="st0" cx="0" cy="20" r="3"/>
  </g>
  <g id="stretch">
    <line id="stretch:v" class="st1" x1="20" y1="0" x2="20" y2="40"/>
  </g>
  <g id="artwork">
    <path class="st4" d="M30.4 37.2 C27 34.4 21.5 27.7 21.5 20 S26.7 6.1 30 3.1"/>
    <path class="st4" d="M30 3.1 C31.3 1.9 32.7 1.3 34.1 1.3 H11.3 C6.1 1.3 1.7 9.7 1.7 20 S6 38.7 11.3 38.7 H34.1 C32.8 38.7 31.6 38.2 30.4 37.2 C30.4 37.2 30 3.1 30 3.1 Z"/>
    <path class="st5" d="M44.8 39.4 C44.5 30.6 41.5 30.3 41.5 20.6 S44.7 10 44.8 0.5 H24.7 C24.6 10.1 21.5 10.6 21.5 20.4 S24.5 30.4 24.8 39.5 H44.8 Z"/>
  </g>
  <g id="leads">
    <line class="st2" x1="1.2" y1="20" x2="0" y2="20"/>
  </g>
</svg>