<?xml version="1.0" encoding="UTF-8"?>
<svg id="Layer_1" xmlns="http://www.w3.org/2000/svg" version="1.1" viewBox="0 0 98.3 59.2">
  <!-- Generator: Adobe Illustrator 30.2.1, SVG Export Plug-In . SVG Version: 2.1.1 Build 1)  -->
  <defs>
    <style>
      .st0 {
        fill: none;
        stroke: #000;
        stroke-linecap: round;
        stroke-linejoin: round;
        stroke-width: 3px;
      }
    </style>
  </defs>
  <g id="ports">
    <circle id="port:left" cx="0" cy="29.6" r="3"/>
    <circle id="port:right" cx="98.4" cy="29.6" r="3"/>
  </g>
  <g id="artwork">
    <g>
      <path class="st0" d="M60.7,29.6c2.6-13.1,12.9-13.1,15.4,0M60.7,29.6c-2.6,13.1,5.1,13.1,2.6,0M22.2,29.6c2.6-13.1,12.9-13.1,15.4,0M35,29.6c2.6-13.1,12.9-13.1,15.4,0M47.9,29.6c2.6-13.1,12.9-13.1,15.4,0M35,29.6c-2.6,13.1,5.1,13.1,2.6,0M47.9,29.6c-2.6,13.1,5.1,13.1,2.6,0M76.2,29.6h0M22.2,29.6h0"/>
      <path class="st0" d="M0,29.6h22.2s-22.2,0-22.2,0Z"/>
      <path class="st0" d="M76.2,29.6h22.2-22.2Z"/>
    </g>
  </g>
</svg>