<?xml version='1.0' encoding='utf-8'?>
<svg xmlns:ns0="http://www.w3.org/2000/svg" xmlns="http://www.w3.org/2000/svg" viewBox="0 0 443.9 162.9">
  <g id="artwork">
    <g transform="matrix(1.0000,0.0000,0.0000,1.0000,341.9,40.9)">
      <style>
      .st0 {
        stroke-linejoin: bevel;
      }

      .st0, .st1 {
        fill: none;
      }

      .st0, .st1, .st2 {
        stroke: #000;
        stroke-linecap: round;
        stroke-width: 3px;
      }

      .st1, .st2 {
        stroke-linejoin: round;
      }

      .st3 {
        fill: #c66;
      }
    </style>
      <ns0:g id="artwork1">
        <ns0:circle class="st0" cx="40" cy="50.2" r="26.5" />
        <ns0:line class="st1" x1="75.4" y1="55.1" x2="57.7" y2="44.7" />
        <ns0:line class="st1" x1="57.7" y1="55.1" x2="75.4" y2="44.7" />
        <ns0:line class="st1" x1="22.3" y1="55.1" x2="4.6" y2="44.7" />
        <ns0:line class="st1" x1="4.6" y1="55.1" x2="22.3" y2="44.7" />
      </ns0:g>
      <ns0:path class="st2" d="M40,23.6V0" />
      <ns0:path class="st2" d="M40,100v-23.3" />
    </g>
    <g transform="matrix(1.0000,0.0000,0.0000,1.0000,22.0,22.0)">
      <style>
      .st0 {
        fill: #c66;
      }

      .st1 {
        fill: #fff;
      }

      .st1, .st2, .st3 {
        stroke: #231f20;
        stroke-linejoin: round;
      }

      .st1, .st3 {
        stroke-width: 1.9px;
      }

      .st4 {
        fill: #c03;
        stroke: #c03;
        stroke-miterlimit: 10;
        stroke-width: .9px;
      }

      .st2 {
        fill: none;
        stroke-linecap: round;
        stroke-width: 3px;
      }

      .st3 {
        fill: #cccbcb;
      }
    </style>
      <ns0:g>
        <ns0:line class="st2" x1="10.2" y1="18.9" y2="18.9" />
        <ns0:path class="st3" d="M107.5,32.5c-3.8,0-7-6.1-7-13.6,0-7.5,3.1-13.6,7-13.6H15.5c-3.8,0-7,6.1-7,13.6,0,7.5,3.1,13.6,7,13.6h92Z" />
        <ns0:g>
          <ns0:path class="st1" d="M114.1,23c-.9,5.5-3.5,9.5-6.6,9.5s-7-6.1-7-13.6c0-7.5,3.1-13.6,7-13.6,3.1,0,5.8,4,6.6,9.5" />
          <ns0:path class="st3" d="M114.1,23" />
        </ns0:g>
        <ns0:line class="st2" x1="121.1" y1="18.9" x2="108.3" y2="18.9" />
      </ns0:g>
    </g>
    <g transform="matrix(0.0000,1.0000,-1.0000,0.0000,312.0,40.9)">
      <style>
      .st0 {
        fill: none;
        stroke: #000;
        stroke-linecap: round;
        stroke-linejoin: bevel;
        stroke-width: 3px;
      }

      .st1 {
        fill: #c66;
      }
    </style>
      <ns0:g>
        <ns0:path class="st0" d="M54.6,5.4v49.2" />
        <ns0:path class="st0" d="M45.4,5.4v49.2" />
      </ns0:g>
      <ns0:path class="st0" d="M0,30h45.4" />
      <ns0:path class="st0" d="M100,30h-44.9" />
    </g>
    <path d="M222.0,40.9 L382.0,40.9 L382.0,46.9" fill="none" stroke="#000000" stroke-width="3.0" stroke-linecap="round" stroke-linejoin="round" />
    <path d="M382.0,134.9 L382.0,140.9 L22.0,140.9 L22.0,140.9" fill="none" stroke="#000000" stroke-width="3.0" stroke-linecap="round" stroke-linejoin="round" />
  </g>
  <g id="ports">
    <circle id="port:bot" cx="382.0" cy="40.9" r="3" fill="#c66" />
    <circle id="port:top" cx="382.0" cy="140.9" r="3" fill="#c66" />
    <circle id="port:left" cx="22.0" cy="40.9" r="3" fill="#c66" />
    <circle id="port:right" cx="222.0" cy="40.9" r="3" fill="#c66" />
    <circle id="port:left_1" cx="282.0" cy="40.9" r="3" fill="#c66" />
    <circle id="port:right_1" cx="282.0" cy="140.9" r="3" fill="#c66" />
  </g>
</svg>