<?xml version='1.0' encoding='utf-8'?>
<svg xmlns:ns0="http://www.w3.org/2000/svg" xmlns="http://www.w3.org/2000/svg" viewBox="0 0 464.9 294.0">
  <g id="artwork">
    <g transform="matrix(1.0000,0.0000,0.0000,1.0000,62.9,103.1)">
      <style>
      .st0 {
        fill: #c66;
      }

      .st1 {
        fill: #fff;
      }

      .st1, .st2, .st3 {
        stroke: #231f20;
        stroke-linejoin: round;
      }

      .st1, .st3 {
        stroke-width: 1.9px;
      }

      .st4 {
        fill: #c03;
        stroke: #c03;
        stroke-miterlimit: 10;
        stroke-width: .9px;
      }

      .st2 {
        fill: none;
        stroke-linecap: round;
        stroke-width: 3px;
      }

      .st3 {
        fill: #cccbcb;
      }
    </style>
      <ns0:g>
        <ns0:line class="st2" x1="10.2" y1="18.9" y2="18.9" />
        <ns0:path class="st3" d="M 227.5 32.5 c -3.8 0 -7 -6.1 -7 -13.6 0 -7.5 3.1 -13.6 7 -13.6 H 15.5 c -3.8 0 -7 6.1 -7 13.6 0 7.5 3.1 13.6 7 13.6 h 92 Z" />
        <ns0:g>
          <ns0:path class="st1" d="M 234.1 23 c -0.9 5.5 -3.5 9.5 -6.6 9.5 s -7 -6.1 -7 -13.6 c 0 -7.5 3.1 -13.6 7 -13.6 3.1 0 5.8 4 6.6 9.5" />
          <ns0:path class="st3" d="M 234.1 23" />
        </ns0:g>
        <ns0:line class="st2" x1="241.1" y1="18.9" x2="228.3" y2="18.9" />
      </ns0:g>
    </g>
    <g transform="matrix(0.0000,-1.0000,1.0000,0.0000,312.9,222.0)">
      <style>
      .st0 {
        fill: none;
        stroke: #000;
        stroke-linecap: round;
        stroke-linejoin: bevel;
        stroke-width: 3px;
      }

      .st1 {
        fill: #c66;
      }
    </style>
      <ns0:g>
        <ns0:path class="st0" d="M54.6,5.4v49.2" />
        <ns0:path class="st0" d="M45.4,5.4v49.2" />
      </ns0:g>
      <ns0:path class="st0" d="M0,30h45.4" />
      <ns0:path class="st0" d="M100,30h-44.9" />
    </g>
    <g transform="matrix(0.0000,1.0000,-1.0000,0.0000,442.9,122.0)">
      <style>
      .st0 {
        fill: none;
        stroke: #000;
        stroke-linecap: round;
        stroke-linejoin: round;
        stroke-width: 3px;
      }

      .st1 {
        fill: #c66;
      }

      .st2 {
        fill: #fff;
        stroke: #999;
        stroke-miterlimit: 10;
        stroke-width: .5px;
      }

      .st3 {
        display: none;
      }
    </style>
      <ns0:path class="st0" d="M61.6,20c2.6-13.1,12.9-13.1,15.4,0M61.6,20c-2.6,13.1,5.1,13.1,2.6,0M23,20c2.6-13.1,12.9-13.1,15.4,0M35.9,20c2.6-13.1,12.9-13.1,15.4,0M48.7,20c2.6-13.1,12.9-13.1,15.4,0M35.9,20c-2.6,13.1,5.1,13.1,2.6,0M48.7,20c-2.6,13.1,5.1,13.1,2.6,0M77,20h0M23,20h0" style="fill:none;stroke:#cc3333;stroke-linecap:round;stroke-linejoin:round;stroke-width:3px" />
      <ns0:line class="st0" x1="23" y1="20" y2="20" style="fill:none;stroke:#cc3333;stroke-linecap:round;stroke-linejoin:round;stroke-width:3px" />
      <ns0:line class="st0" x1="100" y1="20" x2="77" y2="20" style="fill:none;stroke:#cc3333;stroke-linecap:round;stroke-linejoin:round;stroke-width:3px" />
    </g>
    <g transform="matrix(-1.0000,0.0000,-0.0000,-1.0000,191.4,222.0)">
      <ns0:path fill="url(#fade)" d="M15.9,35.7c0,11-10.7,11-10.7,22s10.7,11,10.7,22-10.7,11-10.7,22,10.7,11,10.7,22-10.7,11-10.7,22,9.1,14.2,10.9,19.8h493.3V30.5H15.8c.1,1.4.1,3.1.1,5.1h0Z" />
    </g>
    <g transform="matrix(1.0000,0.0000,0.0000,1.0000,359.9,222.0)">
      <style>
      .st0 {
        fill: none;
        stroke: #000;
        stroke-linecap: round;
        stroke-linejoin: round;
        stroke-width: 3px;
      }

      .st1 {
        fill: #c66;
      }
    </style>
      <ns0:polyline class="st0" points="10.2 31.4 14.3 20.8 23.4 20.8 32.2 20.8 28 31.5" />
      <ns0:line class="st0" x1="19.1" y1="31.4" x2="23.2" y2="21.1" />
      <ns0:line class="st0" x1="23" x2="23" y2="21.2" />
    </g>
    <path d="M422.9,128.0 L422.9,122.0 L342.9,122.0 L342.9,128.0" fill="none" stroke="#000000" stroke-width="3.0" stroke-linecap="round" stroke-linejoin="round" />
    <path d="M302.9,122.0 L422.9,122.0 L422.9,128.0" fill="none" stroke="#000000" stroke-width="3.0" stroke-linecap="round" stroke-linejoin="round" />
    <path d="M422.9,216.0 L422.9,222.0 L342.9,222.0 L342.9,216.0" fill="none" stroke="#000000" stroke-width="3.0" stroke-linecap="round" stroke-linejoin="round" />
  </g>
  <g id="ports">
    <circle id="port:left" cx="62.9" cy="122.0" r="3" fill="#c66" />
    <circle id="port:right" cx="302.9" cy="122.0" r="3" fill="#c66" />
    <circle id="port:left_1" cx="342.9" cy="222.0" r="3" fill="#c66" />
    <circle id="port:right_1" cx="342.9" cy="122.0" r="3" fill="#c66" />
    <circle id="port:left_2" cx="422.9" cy="122.0" r="3" fill="#c66" />
    <circle id="port:right_2" cx="422.9" cy="222.0" r="3" fill="#c66" />
    <circle id="port:left_3" cx="382.9" cy="222.0" r="3" fill="#c66" />
  </g>
</svg>