<?xml version="1.0" encoding="UTF-8"?>
<svg id="Layer_1" xmlns="http://www.w3.org/2000/svg" version="1.1" viewBox="0 0 200 100">
  <!-- Generator: Adobe Illustrator 30.2.1, SVG Export Plug-In . SVG Version: 2.1.1 Build 1)  -->
  <defs>
    <style>
      .st0 {
        stroke-width: 3px;
      }

      .st0, .st1 {
        fill: #fff;
      }

      .st0, .st1, .st2 {
        stroke-miterlimit: 10;
      }

      .st0, .st1, .st2, .st3 {
        stroke: #231f20;
      }

      .st1 {
        stroke-width: 2.5px;
      }

      .st4 {
        fill: #231f20;
      }

      .st2, .st3, .st5 {
        fill: none;
      }

      .st6 {
        fill: #cd6666;
      }

      .st3 {
        stroke-width: .5px;
      }

      .st3, .st5 {
        stroke-linejoin: round;
      }

      .st5 {
        stroke: #c66;
        stroke-linecap: round;
      }
    </style>
  </defs>
  <g id="artwork">
    <rect class="st1" width="200" height="100"/>
    <rect class="st4" x="8.2" y="9.5" width="95.4" height="73.8" rx="4" ry="4"/>
    <circle class="st2" cx="126.1" cy="24" r="11.2"/>
    <rect class="st3" x="153.3" y="16.6" width="9.9" height="9.9" rx="1.9" ry="1.9"/>
    <rect class="st3" x="165.7" y="16.6" width="9.9" height="9.9" rx="1.9" ry="1.9"/>
    <rect class="st3" x="178" y="16.6" width="9.9" height="9.9" rx="1.9" ry="1.9"/>
    <rect class="st3" x="153.3" y="29" width="9.9" height="9.9" rx="1.9" ry="1.9"/>
    <rect class="st3" x="165.7" y="29" width="9.9" height="9.9" rx="1.9" ry="1.9"/>
    <rect class="st3" x="178" y="29" width="9.9" height="9.9" rx="1.9" ry="1.9"/>
    <rect class="st3" x="153.3" y="41.3" width="9.9" height="9.9" rx="1.9" ry="1.9"/>
    <rect class="st3" x="165.7" y="41.3" width="9.9" height="9.9" rx="1.9" ry="1.9"/>
    <rect class="st3" x="178" y="41.3" width="9.9" height="9.9" rx="1.9" ry="1.9"/>
    <circle class="st0" cx="179.8" cy="80" r="8.1"/>
    <path class="st5" d="M10,66.3h.5c0,0,.5,0,.5,0l.5.7.6-.8.5-2.1.5,2.8.5-1h.5c0,0,.5.6.5.6h.5c0,.1.6.5.6.5h.5l.5-.6.5-1.3.5-.4.5,1.9.5.4.6-.8.5-.2.5.9.5-3.1.5,1.7.5,1.2.5.2.5-1.4.6,1,.5-.2.5.7.5-2.9.5,2.5.5-3.3.5-1.7.6,3.1.5-.5.5,2.8.5-.4.5-3,.5,3.2.5-3,.6,1.4.5-.4.5.6.5,1,.5-.4.5-.5.5.4.6-.4.5-1.9.5-.2.5.2.5,1.4.5-1.3.5,3.3.6-4.6.5-.6.5,2.8.5.9.5-1.7.5.4.5.7.6-2.8.5-2.5.5,1.2.5,2.2.5-4.5.5,2.1h.5c0,0,.5-1.6.5-1.6l.6,1.3.5-.9.5,2.6.5-3.9.5-3.2.5-.8.5-1.6.6,2.5.5-4.4.5-.4.5.3.5-4.9.5-.8.5-5.4h.6c0-.1.5-.8.5-.8l.5.8.5.5.5-4.5h.5c0-.1.5-.8.5-.8l.6,2.5h.5c0,0,.5-.8.5-.8l.5-2,.5,6.5.5.4.5,3.9.6-1.2.5,6.3.5-3.6.5,5.8.5-1.7h.5c0,0,.5.1.5.1l.6,3.1.5,4.1.5-.3.5.6.5-4.9.5,6.4.5.4.6-1.4.5.4.5,1.6.5,3.4.5-4.4.5,1.4.5,3.3.5-2.7.6.4.5,1,.5-1.9.5,2.6.5-2.1.5,3.6.5-1.3.6,3.3.5-2.5.5,1.9.5-4.2.5,2,.5.8.5,1.9.6-4.9.5,4.3.5-.5.5,1.1.5-.8.5-1,.5-.8.6-1,.5,2.3.5-.5.5,1.9.5-2.4.5,1.5.5-2.9.6,1.9.5,1.1.5.8h.5l.5-1.2.5-1.6.5,2.5h.6c0,.1.5.1.5.1l.5-1.8.5,2,.5-.8.5.8h1l.6-.4.5.4.5-.4.5-.8.5.6.5.6.5-.5.6.5h.5l.5-1.4.5-1.9.5,3.1h.5c0,0,.5-1.3.5-1.3l.6,1.5h.5l.5-2.1.5,2.1"/>
    <g>
      <path d="M135.3,71.9c0,1-.3,2-.8,2.8s-1.3,1.5-2.3,1.9-2.3.7-3.7.7-3.1-.3-4.2-1c-.8-.5-1.4-1.1-1.9-1.8s-.7-1.5-.7-2.2,0-.8.4-1.1.7-.5,1.1-.5.7,0,.9.4.5.6.7,1c.2.5.5,1,.7,1.4s.6.7,1.1.9,1.1.4,1.8.4,1.9-.2,2.5-.7,1-1.1,1-1.8-.2-1-.5-1.4-.8-.6-1.3-.8-1.3-.4-2.2-.6c-1.2-.3-2.3-.6-3.1-1s-1.5-.9-2-1.6-.7-1.5-.7-2.5.3-1.8.8-2.5,1.3-1.3,2.2-1.7,2.1-.6,3.4-.6,2,0,2.7.4,1.4.6,1.9,1,.9.9,1.1,1.4.4.9.4,1.4-.1.8-.4,1.1-.7.5-1.1.5-.7,0-.9-.3-.4-.5-.7-1c-.3-.6-.7-1.2-1.1-1.5s-1.1-.5-2.1-.5-1.6.2-2.2.6-.8.9-.8,1.4,0,.6.3.9.4.5.8.6.7.3,1,.4.9.2,1.7.4c1,.2,1.8.5,2.6.8s1.5.6,2,1,1,.9,1.3,1.5.5,1.3.5,2.2h-.2Z"/>
      <path d="M149.2,75.1l-.8-2.2h-7l-.8,2.2c-.3.9-.6,1.4-.8,1.7s-.6.5-1.1.5-.8-.2-1.2-.5-.5-.7-.5-1.1,0-.5.1-.7.2-.6.4-1l4.4-11.2c.1-.3.3-.7.5-1.2s.4-.8.6-1.1.5-.5.8-.7.7-.3,1.2-.3.9,0,1.2.3.6.4.8.7.4.6.5.9.3.8.5,1.3l4.5,11.1c.4.8.5,1.5.5,1.8s-.2.8-.5,1.1-.7.5-1.2.5-.5,0-.7,0-.4-.2-.5-.4-.3-.4-.4-.8-.3-.7-.4-.9h-.1ZM142.4,70.4h5.1l-2.6-7.1-2.5,7.1Z"/>
    </g>
  </g>
  <g id="ports">
    <circle id="port:left" class="st6" cx="179.8" cy="80" r="4.8"/>
  </g>
</svg>