<?xml version="1.0" encoding="UTF-8"?>
<svg id="Layer_1" xmlns="http://www.w3.org/2000/svg" version="1.1" viewBox="0 0 200 100">
  <!-- Generator: Adobe Illustrator 30.2.1, SVG Export Plug-In . SVG Version: 2.1.1 Build 1)  -->
  <defs>
    <style>
      .st0 {
        stroke-width: 3px;
      }

      .st0, .st1 {
        fill: #fff;
      }

      .st0, .st1, .st2 {
        stroke-miterlimit: 10;
      }

      .st0, .st1, .st2, .st3 {
        stroke: #231f20;
      }

      .st1 {
        stroke-width: 2.5px;
      }

      .st4 {
        fill: #231f20;
      }

      .st2, .st3, .st5 {
        fill: none;
      }

      .st6 {
        fill: #cd6666;
      }

      .st3, .st5 {
        stroke-linejoin: round;
        stroke-width: .5px;
      }

      .st5 {
        stroke: #c66;
        stroke-linecap: round;
      }
    </style>
  </defs>
  <g id="artwork">
    <rect class="st1" width="200" height="100"/>
    <rect class="st4" x="8.2" y="9.5" width="95.4" height="73.8" rx="4" ry="4"/>
    <circle class="st2" cx="126.1" cy="24" r="11.2"/>
    <rect class="st3" x="153.3" y="16.6" width="9.9" height="9.9" rx="1.9" ry="1.9"/>
    <rect class="st3" x="165.7" y="16.6" width="9.9" height="9.9" rx="1.9" ry="1.9"/>
    <rect class="st3" x="178" y="16.6" width="9.9" height="9.9" rx="1.9" ry="1.9"/>
    <rect class="st3" x="153.3" y="29" width="9.9" height="9.9" rx="1.9" ry="1.9"/>
    <rect class="st3" x="165.7" y="29" width="9.9" height="9.9" rx="1.9" ry="1.9"/>
    <rect class="st3" x="178" y="29" width="9.9" height="9.9" rx="1.9" ry="1.9"/>
    <rect class="st3" x="153.3" y="41.3" width="9.9" height="9.9" rx="1.9" ry="1.9"/>
    <rect class="st3" x="165.7" y="41.3" width="9.9" height="9.9" rx="1.9" ry="1.9"/>
    <rect class="st3" x="178" y="41.3" width="9.9" height="9.9" rx="1.9" ry="1.9"/>
    <circle class="st0" cx="170" cy="80" r="8.1"/>
    <path class="st5" d="M10,67.2v-1.9l.6-3v-1.7l.8-.5v-2.5c.2,0,.9,8.1,1.1,8.1s0-10.2,0-10.2c.1,0,1,6.7,1.2,6.7s0-6.1,0-6.1c.2,0,.5,6.1.6,6.1s0-1.7,0-1.7c0,0,.9,1.7,1,1.7s0-1.7,0-1.7c.4,0,.4,14.4.8,14.4s0-19.6,0-19.6c.2,0,1,6.9,1.2,6.9s0-1.7,0-1.7c.3,0,.6,13.3.9,13.3s0-21.8,0-21.8c.3,0,.5,13.5.8,13.5s0-15.7,0-15.7c.2,0,.6,6.8.8,6.8s0-3.2,0-3.2c.2,0,.6,8.8.9,8.8s0-1.7,0-1.7l1,1.7v-1.7l1.1,1.7v-1.7c.1,0,.9,7.3,1.1,7.3s0-2.5,0-2.5c0,0,.6,2.8.7,2.8s0-12,0-12c.1,0,.4,6,.5,6s0-1.7,0-1.7c.2,0,.2,10.5.5,10.5s0-21.5,0-21.5c.6,0,0,25.1.6,25.1s0-20.4,0-20.4c.2,0,.6,8.5.8,8.5s0-14.7,0-14.7c.6,0,0,23.6.5,23.6s0-9.5,0-9.5c.1,0,.5-4.9.6-4.9s0-6.4,0-6.4c.4,0,.4,18.3.8,18.3s0-14.2,0-14.2c.4,0,.5,14.6.8,14.6s0-10.8,0-10.8c.1,0,.5,4.9.6,4.9s0-16.1,0-16.1c.7,0,.2,23.8.8,23.8s0-17.2,0-17.2c.3,0,.4,9.3.7,9.3s0-6.5,0-6.5c.2,0,.3,8.5.5,8.5s0-16.3,0-16.3c.4,0,1,15.3,1.4,15.3s0-10.1,0-10.1c0,0,.5,6.2.7,6.2s0-2,0-2c.2,0,.4,9.4.7,9.4s0-12.2,0-12.2c0,0,1,3.7,1.1,3.7s0-2.2,0-2.2l.8,1.5v-2.3s.6,1.7.7,1.7v-2.5c.2,0,1,11.1,1.3,11.1s0-22.7,0-22.7c.5,0,.5,16.1.8,16.1s0-16.4,0-16.4c.5,0,0,18.2.6,18.2s0-2.9,0-2.9c.4,0,1.1-15.2,1.4-15.2s0-9,0-9c.3,0,.9,10.7,1.2,10.7s-.2-3.7,0-3.7,1.3,2,1.4,2-.2-6.1,0-6.1.6,4.1.8,4.1-.2-14.5,0-14.5,1.1,10,1.4,10,0-13.9,0-13.9c.4,0,.9,16,1.2,16s0-5.4,0-5.4l1.4-1.7v-2s.9,1.4,1,1.4,0-1.9,0-1.9c0,0,1.1,3,1.2,3s0-7,0-7c.2,0,1,11.1,1.2,11.1s0-6.7,0-6.7c.3,0,.4,12.7.8,12.7s0-24.7,0-24.7c.4,0,.4,12.8.8,12.8s0-1.7,0-1.7c.2,0,1.1,9.7,1.3,9.7s0-9.9,0-9.9l1,2.5v-1.8s1,2.5,1.1,2.5,0-2,0-2c0,0,.6,2.4.7,2.4s0-4,0-4c.2,0,.5,8.2.7,8.2s0-3.9,0-3.9c0,0,1.1,2.7,1.2,2.7s0-3.4,0-3.4c.3,0,.8,10.9,1,10.9s0-5,0-5c.2,0,.8,9.1,1,9.1s0-15.7,0-15.7c.3,0,.8,11.4,1,11.4s0-8.9,0-8.9c.2,0,1,12,1.3,12s0-4.5,0-4.5c.3,0,.2,15.1.6,15.1s0-9.5,0-9.5c.3,0,.7,10.9,1,10.9s0-4.1,0-4.1c.2,0,.8,7.9,1,7.9s0-.7,0-.7c0,0,1.2-6.7,1.3-6.7s0-3.4,0-3.4c.5,0,.9,16.4,1.3,16.4s0-5,0-5l1.1.8v-17.3c.4,0,.6,14.5,1,14.5s0-8.4,0-8.4c.2,0,.8,7.6,1,7.6s0-2.3,0-2.3c0,0,1.1,3.3,1.2,3.3s0-2.1,0-2.1c0,0,1.4,2.9,1.5,2.9s0-1.9,0-1.9c.3,0,.5,10.4.8,10.4s0-1.6,0-1.6c0,0,.5-6.4.6-6.4s0-1.8,0-1.8c0,0,.5,1.9.6,1.9s0-1.7,0-1.7c0,0,1.4,2.5,1.5,2.5s0-1.3,0-1.3c0,0,1.3.7,1.4.7s0-1.7,0-1.7c.2,0,.8,8,.9,8s0-17.9,0-17.9c.3,0,.4,11.6.7,11.6s0-1.7,0-1.7c0,0,.5,1.7.6,1.7s0-1.7,0-1.7l.8,1.7v-1.7l.8,1.7v-1.7s.8,1.7.9,1.7,0-1.7,0-1.7l.9,1.7v-1.7l1.1,1.7v-1.7c.2,0,1,8.5,1.3,8.5s0-14.2,0-14.2c.3,0,1.1,11.4,1.4,11.4s0-4.5,0-4.5l.5-.3v-11.6c.3,0,.7,12.4,1,12.4s0-1.7,0-1.7l1.1,1.7v-1.7c.3,0,.3,10.7.6,10.7s0-14,0-14c.3,0,.8,11,1.1,11s0-2.5,0-2.5c.2,0,.7,7.3.9,7.3s0-10,0-10c.2,0,.5,5.3.6,5.3s0-20.3,0-20.3c.6,0,0,25.7.7,25.7s0-18.1,0-18.1c.2,0,.6,6.7.7,6.7s0-1.7,0-1.7l.6,1.7v-1.7l1-1.1v-10.2c.3,0,.9,13,1.3,13s0-1.7,0-1.7c.2,0,1.1,6.4,1.3,6.4s0-7,0-7c.2,0,.6,7.3.8,7.3s0-14.6,0-14.6"/>
  </g>
  <g id="ports">
    <circle id="port:left" class="st6" cx="170" cy="80" r="4.8"/>
  </g>
</svg>