<?xml version="1.0" encoding="UTF-8"?>
<svg id="Layer_1" xmlns="http://www.w3.org/2000/svg" version="1.1" viewBox="0 0 200 100">
  <!-- Generator: Adobe Illustrator 30.2.1, SVG Export Plug-In . SVG Version: 2.1.1 Build 1)  -->
  <defs>
    <style>
      .st0 {
        stroke: #51ba65;
        stroke-width: 1.8px;
      }

      .st0, .st1, .st2 {
        stroke-miterlimit: 10;
      }

      .st0, .st2, .st3 {
        fill: none;
      }

      .st1 {
        fill: #fff;
        stroke-width: 2.5px;
      }

      .st1, .st2, .st3 {
        stroke: #231f20;
      }

      .st4 {
        fill: #231f20;
      }

      .st5 {
        fill: #cd6666;
      }

      .st3 {
        stroke-linejoin: round;
        stroke-width: .5px;
      }
    </style>
  </defs>
  <g id="artwork">
    <rect class="st1" width="200" height="100"/>
    <rect class="st4" x="8.2" y="9.5" width="95.4" height="73.8" rx="4" ry="4"/>
    <circle class="st2" cx="124.1" cy="24" r="11.2"/>
    <rect class="st3" x="159.3" y="11.6" width="9.9" height="9.9" rx="1.9" ry="1.9"/>
    <rect class="st3" x="171.7" y="11.6" width="9.9" height="9.9" rx="1.9" ry="1.9"/>
    <rect class="st3" x="184" y="11.6" width="9.9" height="9.9" rx="1.9" ry="1.9"/>
    <rect class="st3" x="159.3" y="24" width="9.9" height="9.9" rx="1.9" ry="1.9"/>
    <rect class="st3" x="143.2" y="11.6" width="12.9" height="9.9" rx="1.9" ry="1.9"/>
    <rect class="st3" x="143.2" y="24" width="12.9" height="9.9" rx="1.9" ry="1.9"/>
    <rect class="st3" x="171.7" y="24" width="9.9" height="9.9" rx="1.9" ry="1.9"/>
    <rect class="st3" x="184" y="24" width="9.9" height="9.9" rx="1.9" ry="1.9"/>
    <rect class="st3" x="159.3" y="36.3" width="9.9" height="9.9" rx="1.9" ry="1.9"/>
    <rect class="st3" x="171.7" y="36.3" width="9.9" height="9.9" rx="1.9" ry="1.9"/>
    <rect class="st3" x="184" y="36.3" width="9.9" height="9.9" rx="1.9" ry="1.9"/>
    <rect class="st3" x="159.3" y="49" width="9.9" height="9.9" rx="1.9" ry="1.9"/>
    <rect class="st3" x="171.7" y="49" width="9.9" height="9.9" rx="1.9" ry="1.9"/>
    <rect class="st3" x="184" y="49" width="9.9" height="9.9" rx="1.9" ry="1.9"/>
    <circle class="st1" cx="140" cy="80" r="5"/>
    <circle class="st1" cx="180" cy="80" r="5"/>
    <path class="st0" d="M9.9,71.4h18.2c6.2,0,11.7-4.8,13.8-12l7.9-27.3c1.2-4.2,6.1-4.2,7.3,0l7.8,27.2c2.1,7.2,7.6,12,13.8,12h23.2"/>
    <g>
      <path d="M112.7,51.5l3.4,10.1,3.4-10.2c.2-.5.3-.9.4-1.1,0-.2.2-.4.4-.6.2-.2.5-.3.8-.3s.5,0,.7.2c.2.1.4.3.5.5.1.2.2.4.2.7s0,.3,0,.5c0,.2,0,.3-.2.5,0,.2-.1.3-.2.5l-3.6,9.8c-.1.4-.3.7-.4,1.1-.1.3-.3.6-.5.9-.2.3-.4.5-.7.6-.3.2-.6.2-1,.2s-.8,0-1-.2c-.3-.2-.5-.4-.7-.6-.2-.3-.3-.6-.5-.9s-.3-.7-.4-1.1l-3.6-9.7c0-.2-.1-.4-.2-.5,0-.2-.1-.4-.2-.6,0-.2,0-.4,0-.5,0-.3.1-.7.4-1s.6-.4,1.1-.4.9.2,1.1.5c.2.3.4.8.7,1.5Z"/>
      <path d="M128.9,51.3l5.9,8.9v-8.9c0-.6.1-1,.4-1.3.2-.3.6-.4,1-.4s.8.1,1,.4c.3.3.4.7.4,1.3v11.8c0,1.3-.5,2-1.6,2s-.5,0-.7-.1c-.2,0-.4-.2-.6-.4-.2-.2-.4-.4-.5-.6-.2-.2-.3-.5-.5-.7l-5.7-8.8v8.8c0,.6-.1,1-.4,1.3-.3.3-.6.4-1,.4s-.8-.1-1-.4c-.3-.3-.4-.7-.4-1.3v-11.6c0-.5,0-.9.2-1.2.1-.3.3-.6.6-.8.3-.2.6-.3,1-.3s.5,0,.7.1c.2,0,.4.2.5.4.1.2.3.3.5.6.2.2.3.5.5.7Z"/>
      <path d="M150.2,63l-.7-1.9h-6.1l-.7,1.9c-.3.8-.5,1.3-.7,1.5-.2.3-.5.4-1,.4s-.7-.1-1-.4-.4-.6-.4-1,0-.4.1-.6c0-.2.2-.5.3-.9l3.8-9.8c.1-.3.2-.6.4-1,.2-.4.3-.7.5-1,.2-.3.4-.5.7-.6.3-.2.6-.2,1.1-.2s.8,0,1.1.2c.3.2.5.4.7.6.2.3.3.5.4.8.1.3.3.7.5,1.2l3.9,9.7c.3.7.5,1.3.5,1.6s-.1.7-.4,1c-.3.3-.6.4-1.1.4s-.4,0-.6-.1c-.2,0-.3-.2-.4-.3-.1-.1-.2-.4-.4-.7-.1-.3-.2-.6-.3-.8ZM144.2,58.9h4.5l-2.3-6.2-2.2,6.2Z"/>
    </g>
  </g>
  <g id="ports">
    <circle id="port:left" class="st5" cx="140" cy="80" r="3"/>
    <circle id="port:left1" class="st5" cx="180" cy="80" r="3"/>
  </g>
</svg>