<?xml version="1.0" encoding="UTF-8"?>
<svg id="Layer_1" xmlns="http://www.w3.org/2000/svg" version="1.1" viewBox="0 0 180 100">
  <!-- Generator: Adobe Illustrator 30.2.1, SVG Export Plug-In . SVG Version: 2.1.1 Build 1)  -->
  <defs>
    <style>
      .st0 {
        stroke-width: 2.6px;
      }

      .st0, .st1, .st2, .st3 {
        stroke-linecap: round;
        stroke-linejoin: round;
      }

      .st0, .st1, .st2, .st3, .st4 {
        stroke: #000;
      }

      .st0, .st1, .st2, .st3, .st4, .st5 {
        fill: none;
      }

      .st1 {
        stroke-width: 2.7px;
      }

      .st2 {
        stroke-width: 2.5px;
      }

      .st6 {
        fill: #c66;
      }

      .st3 {
        stroke-width: 2.1px;
      }

      .st4 {
        stroke-linejoin: bevel;
        stroke-width: 6px;
      }

      .st5 {
        stroke: #999;
        stroke-miterlimit: 10;
        stroke-width: .2px;
      }

      .st7 {
        display: none;
      }
    </style>
  </defs>
  <g id="guides" class="st7">
    <rect class="st5" x="71.8" y="36" width="50" height="50"/>
  </g>
  <g id="ports">
    <circle id="port:2" class="st6" cx="180" cy="20.1" r="3"/>
    <circle id="port:1" class="st6" cy="20.1" r="3"/>
    <circle id="port:3" class="st6" cx="54.1" cy="96.2" r="3"/>
    <circle id="port:31" data-name="port:3" class="st6" cx="127" cy="96.4" r="3"/>
  </g>
  <g id="artwork">
    <rect class="st1" x="19.8" y="4.8" width="141.4" height="75.7"/>
    <g>
      <polygon points="41.1 56 29.3 50.5 29.9 62.4 41.1 56"/>
      <path class="st2" d="M57.1,14.1"/>
      <polyline points="64.3 9.1 63.7 21.1 75.6 15.6 64.3 9.1"/>
      <polygon points="94.3 71.3 93.7 59.3 82.5 65.6 94.3 71.3"/>
      <polygon points="144.3 48.8 143.8 60.8 155.5 55.2 144.3 48.8"/>
      <path class="st2" d="M118,14.1"/>
      <polyline points="106.8 8.1 107.6 20.1 118.7 13.5 106.8 8.1"/>
      <path class="st0" d="M94.5,16.2c8,0,6.3-.4,14.3-1.1,0,0,8-1,11.1-1,1.3,0,1.8,0,2.7.1,17.1,1.4,29.8,15,28.3,30.4-1.5,15.5-16.6,26.9-33.8,25.5-15.8-1.2-22.2-4.8-28.6-4.8h0c-6.3,0-10.6,3.6-26.5,4.8-17.1,1.4-32.3-10.1-33.8-25.5-1.5-15.5,11.2-29.1,28.3-30.4s1.4-.1,2.7-.1c3.1,0,11.1,1,11.1,1,8,.7,16,1.1,24,1.1"/>
    </g>
    <polyline class="st3" points="60.7 80.5 60.7 90.1 47.5 90.1 47.5 80.5"/>
    <line class="st4" x1="54.1" y1="90.1" x2="54.1" y2="100"/>
    <polyline class="st3" points="133.6 80.5 133.6 90.1 120.4 90.1 120.4 80.5"/>
    <line class="st4" x1="127" y1="90.1" x2="127" y2="100"/>
    <g>
      <polyline class="st3" points="19.5 26.7 9.9 26.7 9.9 13.5 19.5 13.5"/>
      <line class="st4" x1="9.9" y1="20.1" y2="20.1"/>
    </g>
    <g>
      <polyline class="st3" points="161.6 13.5 171.2 13.5 171.2 26.7 161.6 26.7"/>
      <line class="st4" x1="171.2" y1="20.1" x2="180" y2="20.1"/>
    </g>
  </g>
</svg>