<?xml version="1.0" encoding="UTF-8"?>
<svg id="Layer_1" xmlns="http://www.w3.org/2000/svg" version="1.1" viewBox="0 0 120 37.8">
  <!-- Generator: Adobe Illustrator 30.2.1, SVG Export Plug-In . SVG Version: 2.1.1 Build 1)  -->
  <defs>
    <style>
      .st0 {
        fill: #c66;
      }

      .st1 {
        fill: #fff;
      }

      .st1, .st2, .st3 {
        stroke: #231f20;
        stroke-linejoin: round;
      }

      .st1, .st3 {
        stroke-width: 1.9px;
      }

      .st4 {
        fill: #c03;
        stroke: #c03;
        stroke-miterlimit: 10;
        stroke-width: .9px;
      }

      .st2 {
        fill: none;
        stroke-linecap: round;
        stroke-width: 3px;
      }

      .st3 {
        fill: #cccbcb;
      }
    </style>
  </defs>
  <g id="artwork">
    <g>
      <line class="st2" x1="10.2" y1="18.9" y2="18.9"/>
      <path class="st3" d="M107.5,32.5c-3.8,0-7-6.1-7-13.6,0-7.5,3.1-13.6,7-13.6H15.5c-3.8,0-7,6.1-7,13.6,0,7.5,3.1,13.6,7,13.6h92Z"/>
      <g>
        <path class="st1" d="M114.1,23c-.9,5.5-3.5,9.5-6.6,9.5s-7-6.1-7-13.6c0-7.5,3.1-13.6,7-13.6,3.1,0,5.8,4,6.6,9.5"/>
        <path class="st3" d="M114.1,23"/>
      </g>
      <line class="st2" x1="121.1" y1="18.9" x2="108.3" y2="18.9"/>
    </g>
  </g>
  <g id="ports">
    <circle id="port:left" class="st0" cy="18.9" r="3"/>
    <circle id="port:right" class="st0" cx="120" cy="18.9" r="3"/>
  </g>
  <g id="stretch">
    <line id="stretch:v" class="st4" x1="60" x2="60" y2="37.8"/>
  </g>
</svg>