<?xml version="1.0" encoding="UTF-8"?>
<svg id="Layer_1" xmlns="http://www.w3.org/2000/svg" version="1.1" viewBox="0 0 100 120">
  <!-- Generator: Adobe Illustrator 30.2.1, SVG Export Plug-In . SVG Version: 2.1.1 Build 1)  -->
  <defs>
    <style>
      .st0 {
        stroke: #000;
        stroke-linecap: round;
        stroke-linejoin: round;
        stroke-width: 3px;
      }

      .st0, .st1 {
        fill: none;
      }

      .st2 {
        fill: #c66;
      }

      .st1 {
        stroke: #999;
        stroke-miterlimit: 10;
        stroke-width: .2px;
      }

      .st3 {
        display: none;
      }
    </style>
  </defs>
  <g id="guides" class="st3">
    <rect class="st1" x="-3.8" y="60.1" width="50" height="50"/>
  </g>
  <g id="ports">
    <circle id="port:2" class="st2" cx="50" r="3"/>
    <circle id="port:1" class="st2" cx="50" cy="120" r="3"/>
  </g>
  <g id="artwork">
    <polygon class="st0" points="50 16.7 4.5 102.2 95.5 102.2 50 16.7"/>
    <path d="M59.1,74.4h-8.8v2.6h5.5v6.8c-1.7.6-3.7.9-5.5.9-5.5,0-9.8-5.5-9.8-12.3s4.2-12.2,9.7-12.2,5.8,1,7.9,2.8l.6-3.4c-2.3-1.5-5.6-2-8.3-2-8.1,0-13.6,7.3-13.6,14.9s5.5,15,13.6,15,5.9-.8,8.7-2v-10.9"/>
  </g>
  <g id="leads">
    <line class="st0" x1="50" y1="120" x2="50" y2="102.4"/>
    <line class="st0" x1="50" y1="18.1" x2="50"/>
  </g>
</svg>