<?xml version="1.0" encoding="UTF-8"?>
<svg id="Layer_1" xmlns="http://www.w3.org/2000/svg" version="1.1" viewBox="0 0 120 100">
  <!-- Generator: Adobe Illustrator 30.2.1, SVG Export Plug-In . SVG Version: 2.1.1 Build 1)  -->
  <defs>
    <style>
      .st0 {
        stroke: #000;
        stroke-linecap: round;
        stroke-linejoin: round;
        stroke-width: 3px;
      }

      .st0, .st1 {
        fill: none;
      }

      .st2 {
        fill: #c66;
      }

      .st1 {
        stroke: #999;
        stroke-miterlimit: 10;
        stroke-width: .2px;
      }

      .st3 {
        display: none;
      }
    </style>
  </defs>
  <g id="guides" class="st3">
    <rect class="st1" x="6.2" y="50.1" width="50" height="50"/>
  </g>
  <g id="ports">
    <circle id="port:2" class="st2" cx="120" cy="50" r="3"/>
    <circle id="port:1" class="st2" cy="50" r="3"/>
  </g>
  <g id="artwork">
    <polygon class="st0" points="103.3 50 17.8 4.5 17.8 95.5 103.3 50"/>
  </g>
  <g id="leads">
    <line class="st0" y1="50" x2="17.6" y2="50"/>
    <line class="st0" x1="101.9" y1="50" x2="120" y2="50"/>
  </g>
  <g>
    <polyline points="54.2 -1.7 52 -2.9 48.1 4.5 39.8 0 43.7 -7.3 41.5 -8.5 32.5 8.4 34.7 9.6 39 1.6 47.3 6 43 14 45.2 15.2 54.2 -1.7"/>
    <path d="M64.3,15.1l.8-1.5-8-4.3,3.1-5.8,3.4,1.8c.3.2.6.3.9.5l4.5,2.4.8-1.6L58.8.8l-9,16.8,11.2,6,.9-1.7-3.1-1.6c-.3-.2-.6-.3-.9-.4l-5.1-2.7,3.4-6.3,8,4.3"/>
    <path d="M79.6,22.4c-2,1.8-4.8,4.2-5.7,5.2h0c.2-.6.3-1.6.5-2.9l1.6-12.1.3-2.6-2.8-1.5-9,16.9,1.9,1,8-15.1h0c-.3.9-.7,4-1,6l-1.4,11.4,1.8.9,7.8-6.7c1.8-1.6,2.4-2.1,2.8-2.5.6-.6,2.2-2,2.6-2.5h0s-8,15.1-8,15.1l1.9,1,9-16.9-2.8-1.5-7.6,6.6"/>
    <path d="M100.8,25.3l2.2,1.2c.3.2.6.3.9.5l3.3,1.7.8-1.6-14.8-7.9-.8,1.6,3.3,1.7c.3.2.6.3.9.4l2.2,1.2-8.1,15.2,2.2,1.2,8.1-15.2"/>
  </g>
</svg>