<?xml version="1.0" encoding="UTF-8"?>
<svg id="Layer_1" xmlns="http://www.w3.org/2000/svg" version="1.1" viewBox="0 0 60 140">
  <!-- Generator: Adobe Illustrator 30.2.1, SVG Export Plug-In . SVG Version: 2.1.1 Build 1)  -->
  <defs>
    <style>
      .st0 {
        fill: #c66;
      }

      .st1 {
        stroke-width: 3px;
      }

      .st1, .st2 {
        stroke: #000;
        stroke-linejoin: round;
      }

      .st1, .st3 {
        fill: none;
      }

      .st2 {
        fill: #fff;
        stroke-width: 6px;
      }

      .st4 {
        display: none;
      }

      .st3 {
        stroke: #999;
        stroke-miterlimit: 10;
        stroke-width: .5px;
      }
    </style>
  </defs>
  <g id="guides" class="st4">
    <rect class="st3" x="-6.8" y="58.2" width="50" height="20"/>
  </g>
  <g id="ports">
    <circle id="port:left" class="st0" cx="30.1" r="3"/>
    <circle id="port:right" class="st0" cx="30.1" cy="140.1" r="3"/>
  </g>
  <g id="artwork">
    <rect class="st1" x="9.8" y="21.8" width="40.5" height="96.5"/>
    <g>
      <path d="M21.1,49.9h17c.9,0,1.3.4,1.3,1.2v1.5c0,.9-.4,1.3-1.3,1.3h-17.7s-.2,0-.3-.2c0,0-.1,0-.2-.2v-2.2c0-.4,0-.7.3-1s.5-.3,1-.3h0Z"/>
      <path d="M21.1,59.7h17c.9,0,1.3.4,1.3,1.3v6.9c0,2.5-.5,4.4-1.5,5.6s-2.3,1.8-4,1.8c-2.6,0-4.3-1.5-5-4.4h0l-7.8,4.5c-.2,0-.4.2-.5.2-.4,0-.7-.4-.7-1v-1.6c0-.4,0-.7.2-.8.1-.2.3-.3.6-.5,5-2.9,7.7-4.4,8-4.6v-3.4h-8.3c-.2,0-.3-.2-.4-.4,0-.2-.1-.5-.1-.8v-1.4c0-.8.4-1.2,1.3-1.2h0v-.2h0ZM30.6,63.6v3.6c0,1.4.2,2.5.6,3.2s1.3,1.1,2.5,1.1,2.1-.3,2.6-1c.4-.7.6-1.8.6-3.2v-3.6h-6.4.1Z"/>
      <path d="M21.1,80.1h17.1c.8,0,1.2.4,1.2,1.3v10.8c0,.5,0,.8-.3,1s-.5.3-.9.3h-.4c-.8,0-1.3-.4-1.3-1.3v-8h-5.6v6.8c0,.8-.4,1.2-1.3,1.2s-.7,0-1-.2-.4-.3-.4-.5v-7.4h-7.2c-.8,0-1.2-.4-1.2-1.2v-1.5c0-.5.1-.9.4-1s.5-.3.9-.3Z"/>
    </g>
  </g>
  <g id="leads">
    <path class="st2" d="M30.1,0v21.7"/>
    <path class="st2" d="M30.1,118.3v21.7"/>
  </g>
</svg>