<?xml version="1.0" encoding="UTF-8"?>
<svg id="Layer_1" xmlns="http://www.w3.org/2000/svg" version="1.1" viewBox="0 0 120 200">
  <!-- Generator: Adobe Illustrator 30.3.0, SVG Export Plug-In . SVG Version: 2.1.3 Build 182)  -->
  <defs>
    <style>
      .st0 {
        fill: #fff;
      }
    </style>
  </defs>
  <g id="Layer_11" data-name="Layer_1">
    <g id="snap">
      <circle cx="60" cy="100" r="2"/>
    </g>
    <path id="artwork" class="st0" d="M65.2,167.5H26.1c-1.8-5.6-10.9-8.8-10.9-19.8s10.7-11,10.7-22-10.7-11-10.7-22,10.7-11,10.7-22-10.7-11-10.7-22,10.7-11,10.7-22h0c0-2.1,0-3.8-.1-5.2h82.6v5.2h0c0,11.1-10.7,11.1-10.7,22.1s10.7,11,10.7,22-10.7,11-10.7,22,10.7,11,10.7,22-10.7,11-10.7,22,9.1,14.2,10.9,19.8h-43.5,0Z"/>
  </g>
</svg>