<?xml version="1.0" encoding="UTF-8"?>
<svg id="Layer_1" xmlns="http://www.w3.org/2000/svg" version="1.1" viewBox="0 0 60 140">
  <!-- Generator: Adobe Illustrator 30.2.1, SVG Export Plug-In . SVG Version: 2.1.1 Build 1)  -->
  <defs>
    <style>
      .st0 {
        stroke-linecap: round;
      }

      .st0, .st1 {
        stroke-linejoin: round;
      }

      .st0, .st1, .st2 {
        stroke: #000;
        stroke-width: 3px;
      }

      .st0, .st3, .st2 {
        fill: none;
      }

      .st4 {
        fill: #c66;
      }

      .st1 {
        fill: #fff;
      }

      .st5 {
        display: none;
      }

      .st3 {
        stroke: #999;
        stroke-width: .5px;
      }

      .st3, .st2 {
        stroke-miterlimit: 10;
      }
    </style>
  </defs>
  <g id="guides" class="st5">
    <rect class="st3" x="-6.8" y="58.2" width="50" height="20"/>
  </g>
  <g id="ports">
    <circle id="port:left" class="st4" cx="30.1" r="3"/>
    <circle id="port:right" class="st4" cx="30.1" cy="140.1" r="3"/>
  </g>
  <g id="leads">
    <path class="st1" d="M30.1,0v21.7"/>
    <path class="st1" d="M30.1,118.3v21.7"/>
  </g>
  <g id="artwork">
    <rect class="st2" x="9.8" y="21.8" width="40.5" height="96.5"/>
    <g id="artwork1">
      <g id="artwork2">
        <path class="st0" d="M30,23.4"/>
      </g>
    </g>
  </g>
  <g>
    <path d="M22,42.4h13.7c.2,0,.4,0,.5,0,.1,0,.3.1.4.3.1.2.2.4.2.7v4.8c0,.6,0,1.1,0,1.5,0,.3,0,.8-.1,1.4,0,.6-.2,1.1-.4,1.5-.2.4-.5.8-.8,1.2-.8.9-2,1.3-3.5,1.3s-1.2,0-1.8-.3c-.5-.2-1-.4-1.3-.6-.3-.2-.6-.6-.9-1-.2-.4-.4-.8-.5-1.1-.1-.3-.2-.8-.3-1.3,0-.5,0-.9-.1-1.1s0-.6,0-1v-2.9h-5.1c-.7,0-1.1-.3-1.1-1v-1.2c0-.2,0-.4,0-.5,0-.1.1-.3.3-.4s.4-.2.7-.2ZM28.9,45.6v3.1c0,.6,0,1.1.2,1.6.1.4.3.8.5,1,.2.2.4.4.8.5.3.1.6.2.8.2.2,0,.5,0,.8,0,.6,0,1.1-.1,1.6-.3.4-.2.7-.4.9-.8s.3-.7.4-1.1c0-.4,0-.8,0-1.4v-2.8h-.9s-5.1,0-5.1,0Z"/>
    <path d="M28.7,57.8c5.7,0,8.6,2.6,8.6,7.7s-2.9,7.7-8.6,7.7-8.3-2.6-8.3-7.7h0c0-5.2,2.8-7.7,8.3-7.7ZM28.8,61.1c-.4,0-.7,0-1,0-.3,0-.7,0-1.2.1-.5,0-.9.1-1.3.3s-.8.3-1.2.5c-.4.2-.8.5-1,.8-.3.3-.5.7-.7,1.2-.2.5-.3,1-.3,1.6,0,1.2.4,2.2,1.1,2.9.4.4.8.6,1.3.9.5.2,1,.4,1.6.4.6,0,1.1.1,1.5.2s.9,0,1.5,0h.2c.4,0,.7,0,.9,0,.3,0,.6,0,1.1-.1s.9-.1,1.2-.3c.3-.1.7-.3,1.1-.5.4-.2.7-.5,1-.8.2-.3.5-.7.6-1.2.2-.5.3-1,.3-1.6,0-1.2-.4-2.2-1.1-3-.4-.4-1-.8-1.7-1s-1.3-.4-1.8-.4c-.5,0-1.1,0-1.9,0h-.2Z"/>
    <path d="M36.2,74.5c.4,0,.7.3.7.9v.7c0,.7-.3,1.1-.9,1.3l-9.1,2.4c-1,.3-2.1.6-3.1.8.4,0,1.4.3,3.2.8,1.8.5,3.7,1,5.6,1.5,2,.5,3,.8,3.1.8.1,0,.3,0,.4.1,0,0,.2,0,.3.2s.2.2.3.4c0,.2,0,.4,0,.7v1.6c0,.3,0,.5,0,.7,0,.2-.2.3-.3.4-.2,0-.3.2-.4.2,0,0-.3,0-.5.2l-8.1,2.1c-1.6.4-2.8.8-3.6,1l12,3.2c.4.1.6.3.8.5s.2.5.2.9v.6c0,.6-.2.9-.7.9s-.2,0-.4,0l-13.4-3.6c-.6-.2-1-.3-1.1-.5-.2-.2-.3-.5-.3-.9v-1.8c0-.3,0-.6.2-.8.2-.2.3-.3.4-.4.1,0,.3-.1.6-.2l7.8-2.1c.2,0,.7-.2,1.7-.5,1-.3,1.7-.5,2.2-.6l-11.8-3.1s0,0-.2,0c0,0-.2,0-.2,0,0,0,0,0-.2,0,0,0-.1,0-.2,0,0,0,0,0-.2-.1,0,0-.1-.1-.2-.2s0-.1-.1-.2c0,0,0-.2,0-.3,0-.1,0-.2,0-.3v-1.6c0-.2,0-.4,0-.5,0-.1.1-.3.2-.3,0,0,.1-.2.3-.2.1,0,.2-.1.3-.1,0,0,.2,0,.4-.1.2,0,.3,0,.3,0l13.4-3.6c.1,0,.3,0,.4,0Z"/>
  </g>
</svg>