<?xml version="1.0" encoding="UTF-8"?>
<svg id="Layer_1" xmlns="http://www.w3.org/2000/svg" version="1.1" viewBox="0 0 140 140">
  <!-- Generator: Adobe Illustrator 30.2.1, SVG Export Plug-In . SVG Version: 2.1.1 Build 1)  -->
  <defs>
    <style>
      .st0 {
        fill: #c66;
      }

      .st1 {
        stroke-width: 2px;
      }

      .st1, .st2, .st3, .st4, .st5 {
        fill: none;
      }

      .st1, .st2, .st3, .st5 {
        stroke: #000;
        stroke-linejoin: round;
      }

      .st1, .st5 {
        stroke-linecap: round;
      }

      .st2 {
        stroke-width: 3px;
      }

      .st3 {
        stroke-width: 4px;
      }

      .st4 {
        stroke: #999;
        stroke-miterlimit: 10;
        stroke-width: .2px;
      }

      .st5 {
        stroke-width: 1.6px;
      }

      .st6 {
        display: none;
      }
    </style>
  </defs>
  <g id="guides" class="st6">
    <rect class="st4" x="10" y="60" width="20" height="20"/>
    <rect class="st4" x="10" y="80" width="20" height="20"/>
    <rect class="st4" x="10" y="40" width="20" height="20"/>
    <rect class="st4" x="10" y="20" width="20" height="20"/>
  </g>
  <g id="artwork">
    <rect class="st5" x="10" y="33.3" width="6.6" height="13.2"/>
    <rect class="st5" x="123.3" y="33.4" width="6.6" height="13.2"/>
    <rect class="st1" x="17.7" y="20" width="104.7" height="100.1"/>
    <path class="st3" d="M122.3,27.5"/>
    <path class="st3" d="M17.6,27.4"/>
    <rect class="st5" x="10" y="93.4" width="6.6" height="13.2"/>
    <path class="st3" d="M122.3,100"/>
    <path class="st3" d="M17.6,99.9"/>
    <rect class="st5" x="123.3" y="93.4" width="6.6" height="13.2"/>
    <path class="st3" d="M20,40h12.6c4.7,0,9.3,1.9,12.6,5.2l49.5,49.5c3.3,3.3,7.9,5.2,12.6,5.2h12.6"/>
    <path class="st3" d="M120,40.3h-12.6c-4.7,0-9.3,1.9-12.6,5.2l-49.5,49.5c-3.3,3.3-7.9,5.2-12.6,5.2h-12.6"/>
  </g>
  <g id="leads">
    <path class="st2" d="M10,39.9H0"/>
    <path class="st2" d="M10,100H0"/>
    <path class="st2" d="M129.9,40h10"/>
    <path class="st2" d="M129.9,100h10"/>
  </g>
  <g id="ports">
    <circle id="port:2" class="st0" cx="139.9" cy="40" r="3"/>
    <circle id="port:21" class="st0" cx="139.9" cy="100" r="3"/>
    <circle id="port:1" class="st0" cy="39.9" r="3"/>
    <circle id="port:11" class="st0" cy="100" r="3"/>
  </g>
</svg>