<?xml version="1.0" encoding="UTF-8"?>
<svg id="Layer_1" xmlns="http://www.w3.org/2000/svg" version="1.1" viewBox="0 0 140 100">
  <!-- Generator: Adobe Illustrator 30.2.1, SVG Export Plug-In . SVG Version: 2.1.1 Build 1)  -->
  <defs>
    <style>
      .st0 {
        stroke-linejoin: bevel;
      }

      .st0, .st1 {
        stroke-linecap: round;
        stroke-width: 2.5px;
      }

      .st0, .st1, .st2, .st3 {
        stroke: #000;
      }

      .st0, .st1, .st2, .st4 {
        fill: none;
      }

      .st1, .st2, .st3 {
        stroke-linejoin: round;
      }

      .st5 {
        fill: #c66;
      }

      .st2, .st3 {
        stroke-width: 3px;
      }

      .st3 {
        fill: #fff;
      }

      .st6 {
        display: none;
      }

      .st4 {
        stroke: #999;
        stroke-miterlimit: 10;
        stroke-width: .5px;
      }
    </style>
  </defs>
  <g id="guides" class="st6">
    <rect class="st4" x="33.2" y="38.2" width="50" height="20"/>
  </g>
  <g id="ports">
    <path id="port:left" class="st5" d="M90.1-3c1.7,0,3,1.3,3,3s-1.3,3-3,3-3-1.3-3-3,1.3-3,3-3Z"/>
    <circle id="port:right" class="st5" cx="90" cy="100" r="3"/>
    <g id="ports1">
      <circle id="port:right1" class="st5" cx="10" cy="59.7" r="3"/>
    </g>
  </g>
  <g id="leads">
    <path class="st3" d="M90,0v9.7"/>
    <path class="st3" d="M90,90v10"/>
    <g id="leads2">
      <path class="st3" d="M20,59.7h-10"/>
    </g>
  </g>
  <g id="artwork">
    <g>
      <path class="st0" d="M108.7,35.3h-37.2"/>
      <path class="st0" d="M108.7,24.1h-37.2"/>
    </g>
    <path class="st0" d="M90.1,9.7v14.4"/>
    <path class="st0" d="M90.1,90v-54.6"/>
    <rect class="st2" x="20" y="10" width="100" height="80"/>
    <g>
      <g id="artwork1" data-name="artwork">
        <path class="st1" d="M31.9,59.7c1.8-13.1,9-13.1,10.7,0,1.7,13.1-3.5,13.1-1.7,0s9-13.1,10.7,0-3.6,13.1-1.8,0,9-13.1,10.7,0-3.5,13.1-1.7,0,9-13.1,10.7,0M69.4,59.7h0M31.9,59.7h0"/>
      </g>
      <g id="leads1">
        <line class="st1" x1="31.9" y1="59.7" x2="20" y2="59.7"/>
        <line class="st1" x1="89.5" y1="59.7" x2="69.4" y2="59.7"/>
      </g>
    </g>
  </g>
</svg>