<?xml version="1.0" encoding="UTF-8"?>
<svg id="Layer_1" xmlns="http://www.w3.org/2000/svg" version="1.1" viewBox="0 0 90 80">
  <!-- Generator: Adobe Illustrator 30.2.1, SVG Export Plug-In . SVG Version: 2.1.1 Build 1)  -->
  <defs>
    <style>
      .st0 {
        fill: #c66;
      }

      .st1 {
        stroke-width: 2px;
      }

      .st1, .st2, .st3 {
        stroke-linejoin: round;
      }

      .st1, .st2, .st3, .st4 {
        stroke: #000;
      }

      .st1, .st3, .st4, .st5 {
        fill: none;
      }

      .st2 {
        fill: #fff;
        stroke-width: 3px;
      }

      .st3, .st4 {
        stroke-linecap: round;
        stroke-width: 1.4px;
      }

      .st4 {
        stroke-linejoin: bevel;
      }

      .st6 {
        display: none;
      }

      .st5 {
        stroke: #999;
        stroke-miterlimit: 10;
        stroke-width: .5px;
      }
    </style>
  </defs>
  <g id="guides" class="st6">
    <rect class="st5" x="-6.8" y="28.2" width="50" height="20"/>
  </g>
  <g id="ports">
    <circle id="port:left" class="st0" cx="60" r="3"/>
    <circle id="port:right" class="st0" cx="60" cy="80" r="3"/>
    <g id="ports1">
      <circle id="port:right1" class="st0" cy="50" r="3"/>
    </g>
  </g>
  <g id="leads">
    <path class="st2" d="M60,0v14.4"/>
    <path class="st2" d="M60,70v10"/>
    <g id="leads2">
      <path class="st2" d="M12,50H0"/>
    </g>
  </g>
  <g id="artwork">
    <g>
      <path class="st4" d="M72.8,31.8h-26"/>
      <path class="st4" d="M72.8,24h-26"/>
    </g>
    <path class="st4" d="M59.8,13.9v10.1"/>
    <path class="st4" d="M59.8,70.1V31.9"/>
    <rect class="st1" x="12.1" y="14.1" width="67.9" height="56"/>
    <g>
      <g id="artwork1" data-name="artwork">
        <path class="st3" d="M19.7,50.1c1.3-9.2,6.3-9.2,7.5,0,1.2,9.2-2.4,9.2-1.2,0,1.3-9.2,6.3-9.2,7.5,0s-2.5,9.2-1.3,0,6.3-9.2,7.5,0-2.5,9.2-1.2,0,6.3-9.2,7.5,0M46,50.1h0M19.7,50.1h0"/>
      </g>
      <g id="leads1">
        <line class="st3" x1="19.7" y1="50.1" x2="12.8" y2="50.1"/>
        <line class="st3" x1="59.4" y1="50.1" x2="46" y2="50.1"/>
      </g>
    </g>
  </g>
</svg>