<?xml version="1.0" encoding="UTF-8"?>
<svg id="Layer_1" xmlns="http://www.w3.org/2000/svg" version="1.1" viewBox="0 0 200 80">
  <!-- Generator: Adobe Illustrator 30.2.1, SVG Export Plug-In . SVG Version: 2.1.1 Build 1)  -->
  <defs>
    <style>
      .st0, .st1 {
        stroke-linecap: round;
      }

      .st0, .st1, .st2, .st3, .st4 {
        fill: none;
      }

      .st0, .st1, .st2, .st3, .st5 {
        stroke: #000;
        stroke-linejoin: round;
      }

      .st0, .st2 {
        stroke-width: 3px;
      }

      .st6 {
        fill: #c66;
      }

      .st1 {
        stroke-width: 2.1px;
      }

      .st3 {
        stroke-width: 4.5px;
      }

      .st4 {
        stroke: #999;
        stroke-miterlimit: 10;
        stroke-width: .2px;
      }

      .st7 {
        display: none;
      }
    </style>
  </defs>
  <g id="guides" class="st7">
    <rect class="st4" x="10" y="40" width="20" height="20"/>
    <rect class="st4" x="10" y="60" width="20" height="20"/>
    <rect class="st4" x="10" y="20" width="20" height="20"/>
    <rect class="st4" x="10" width="20" height="20"/>
  </g>
  <g id="artwork">
    <rect class="st5" x="36.9" y="63.9" width="13.2" height="6.6"/>
    <rect class="st1" x="150" y="63.9" width="13.2" height="6.6"/>
    <rect class="st1" x="10" y="13.3" width="6.6" height="13.2"/>
    <rect class="st1" x="183.4" y="13.3" width="6.6" height="13.2"/>
    <rect class="st0" x="17.6" y="4.1" width="164.8" height="59.9"/>
    <line class="st3" x1="17.6" y1="19.9" x2="182.4" y2="19.9"/>
    <path class="st3" d="M43.4,63.9v-20.9c0-6.6,5.4-12,12-12h89.2c6.6,0,12,5.4,12,12v20.9"/>
  </g>
  <g id="leads">
    <path class="st2" d="M10,19.9H0"/>
    <path class="st2" d="M190,19.9h10"/>
    <path class="st2" d="M156.6,70.6v9.4"/>
  </g>
  <g id="ports">
    <circle id="port:2" class="st6" cx="200" cy="19.9" r="3"/>
    <circle id="port:1" class="st6" cy="19.9" r="3"/>
    <circle id="port:21" class="st6" cx="156.6" cy="80" r="3"/>
  </g>
</svg>