<?xml version="1.0" encoding="UTF-8"?>
<svg id="Layer_1" xmlns="http://www.w3.org/2000/svg" version="1.1" viewBox="0 0 140 100">
  <!-- Generator: Adobe Illustrator 30.2.1, SVG Export Plug-In . SVG Version: 2.1.1 Build 1)  -->
  <defs>
    <style>
      .st0 {
        fill: #c66;
      }

      .st1 {
        stroke-width: 1.8px;
      }

      .st1, .st2, .st3, .st4 {
        stroke: #000;
      }

      .st1, .st2, .st3, .st5 {
        fill: none;
      }

      .st1, .st2, .st4 {
        stroke-linejoin: round;
      }

      .st2, .st3 {
        stroke-linecap: round;
        stroke-width: 1.4px;
      }

      .st3 {
        stroke-linejoin: bevel;
      }

      .st4 {
        fill: #fff;
        stroke-width: 2px;
      }

      .st6 {
        display: none;
      }

      .st5 {
        stroke: #999;
        stroke-miterlimit: 10;
        stroke-width: .5px;
      }
    </style>
  </defs>
  <g id="guides" class="st6">
    <rect class="st5" x="33.2" y="38.2" width="50" height="20"/>
  </g>
  <g id="ports">
    <circle id="port:left" class="st0" cx="100" r="3"/>
    <circle id="port:right" class="st0" cx="100" cy="100" r="3"/>
    <g id="ports1">
      <circle id="port:right1" class="st0" cx="40" cy="60" r="3"/>
    </g>
  </g>
  <g id="leads">
    <path class="st4" d="M100,0v9.7"/>
    <path class="st4" d="M100,90v10"/>
    <g id="leads2">
      <path class="st4" d="M52,60h-12"/>
    </g>
  </g>
  <g id="artwork">
    <g>
      <path class="st3" d="M112.8,41.7h-26"/>
      <path class="st3" d="M112.8,33.9h-26"/>
    </g>
    <path class="st3" d="M99.8,23.8v10.1"/>
    <path class="st3" d="M99.8,80v-38.2"/>
    <rect class="st1" x="52.1" y="24" width="67.9" height="56"/>
    <g>
      <g id="artwork1" data-name="artwork">
        <path class="st2" d="M59.7,60c1.3-9.2,6.3-9.2,7.5,0,1.2,9.2-2.4,9.2-1.2,0s6.3-9.2,7.5,0-2.5,9.2-1.3,0,6.3-9.2,7.5,0-2.5,9.2-1.2,0,6.3-9.2,7.5,0M85.9,60h0M59.7,60h0"/>
      </g>
      <g id="leads1">
        <line class="st2" x1="59.7" y1="60" x2="52.8" y2="60"/>
        <line class="st2" x1="100" y1="60" x2="85.9" y2="60"/>
      </g>
    </g>
  </g>
</svg>