<?xml version="1.0" encoding="UTF-8"?>
<svg id="Layer_1" xmlns="http://www.w3.org/2000/svg" version="1.1" viewBox="0 0 60 100">
  <!-- Generator: Adobe Illustrator 30.2.1, SVG Export Plug-In . SVG Version: 2.1.1 Build 1)  -->
  <defs>
    <style>
      .st0 {
        stroke-linejoin: bevel;
      }

      .st0, .st1 {
        stroke-linecap: round;
        stroke-width: 3px;
      }

      .st0, .st1, .st2 {
        stroke: #000;
      }

      .st0, .st2 {
        fill: none;
      }

      .st3 {
        fill: #c66;
      }

      .st1 {
        fill: #fff;
        stroke-linejoin: round;
      }

      .st2 {
        stroke-miterlimit: 10;
        stroke-width: .2px;
      }

      .st4 {
        display: none;
      }
    </style>
  </defs>
  <g id="ports">
    <circle id="port:left" class="st3" cx="30" r="3"/>
    <circle id="port:right" class="st3" cx="30" cy="100.1" r="3"/>
  </g>
  <g id="artwork">
    <circle class="st0" cx="30" cy="49.9" r="24.6"/>
    <path d="M19.6,41.7c0-.7.4-1,1.3-1h8.1v-8.2c0-.4.1-.7.3-.9s.4-.3.7-.3c.7,0,1.1.4,1.1,1.3v8.1h8c.9,0,1.4.3,1.4,1s-.4,1-1.3,1h-8v8.2c0,.3,0,.6-.3.8-.2.2-.5.3-.8.3-.7,0-1-.4-1-1.3v-8.1h-8.2c-.4,0-.6,0-.9-.3s-.3-.4-.3-.8v.2Z"/>
    <path d="M22.3,63v-1c0-.2.2-.3.4-.5.2-.2.5-.3.8-.3h13.1c.3,0,.6,0,.8.2s.3.3.4.5v.5c0,.8-.4,1.2-1.3,1.2h-13.1c-.3,0-.6,0-.8-.3-.2-.2-.3-.3-.4-.5v.2Z"/>
  </g>
  <g id="leads">
    <path class="st1" d="M30,.1v24.7"/>
    <path class="st1" d="M30,100.1v-25.4"/>
  </g>
  <g id="guides" class="st4">
    <rect class="st2" x="10" y="50.1" width="20.1" height="50"/>
    <rect class="st2" x="30" y="50.1" width="20.1" height="50"/>
  </g>
</svg>