<?xml version="1.0" encoding="UTF-8"?>
<svg id="Layer_1" xmlns="http://www.w3.org/2000/svg" version="1.1" viewBox="0 0 80 100">
  <!-- Generator: Adobe Illustrator 30.2.1, SVG Export Plug-In . SVG Version: 2.1.1 Build 1)  -->
  <defs>
    <style>
      .st0 {
        stroke-linejoin: bevel;
      }

      .st0, .st1, .st2 {
        stroke: #000;
        stroke-linecap: round;
      }

      .st0, .st1, .st2, .st3 {
        stroke-width: 3px;
      }

      .st0, .st1, .st3 {
        fill: none;
      }

      .st1, .st2 {
        stroke-linejoin: round;
      }

      .st4 {
        fill: #c66;
      }

      .st3 {
        stroke: #231f20;
        stroke-miterlimit: 10;
      }
    </style>
  </defs>
  <g id="leads">
    <path class="st2" d="M39.7,98.5v-21.1"/>
    <path class="st2" d="M39.7,22.1V0"/>
  </g>
  <g id="ports">
    <circle id="port:bot" class="st4" cx="39.7" r="3"/>
    <circle id="port:top" class="st4" cx="39.6" cy="100" r="3"/>
  </g>
  <g id="artwork">
    <g>
      <path class="st3" d="M63.6,66.1v6.4c0,2.7-2.2,4.9-4.9,4.9H19.7c-2.7,0-4.9-2.2-4.9-4.9V27.5c0-2.7,2.2-4.9,4.9-4.9h39c2.7,0,4.9,2.2,4.9,4.9v6.4"/>
      <path class="st3" d="M63.6,66.1"/>
      <path class="st3" d="M63.6,33.8"/>
      <g>
        <g>
          <path class="st0" d="M63.6,56.9c7.7,1.5,7.7,7.7,0,9.2"/>
          <path class="st0" d="M63.6,56.9c-7.7-1.5-7.7,3.1,0,1.5"/>
          <path class="st0" d="M63.6,33.8c7.7,1.5,7.7,7.7,0,9.2"/>
          <path class="st0" d="M63.6,41.5c7.7,1.5,7.7,7.7,0,9.2"/>
          <path class="st0" d="M63.6,49.2c7.7,1.5,7.7,7.7,0,9.2"/>
          <path class="st0" d="M63.6,41.5c-7.7-1.5-7.7,3.1,0,1.5"/>
          <path class="st0" d="M63.6,49.2c-7.7-1.5-7.7,3.1,0,1.5"/>
        </g>
        <g>
          <line class="st1" x1="5.7" y1="43.5" x2="24" y2="54.3"/>
          <line class="st1" x1="24" y1="43.5" x2="5.7" y2="54.3"/>
        </g>
      </g>
    </g>
  </g>
</svg>