<?xml version='1.0' encoding='utf-8'?>
<svg xmlns:ns0="http://www.w3.org/2000/svg" xmlns="http://www.w3.org/2000/svg" viewBox="0 0 214.4 144.0">
  <g id="artwork">
    <g transform="matrix(0.0000,1.0000,-1.0000,0.0000,82.0,22.0)">
      <style>
      .st0 {
        fill: none;
        stroke: #000;
        stroke-linecap: round;
        stroke-linejoin: bevel;
        stroke-width: 3px;
      }

      .st1 {
        fill: #c66;
      }
    </style>
      <ns0:g>
        <ns0:path class="st0" d="M54.6,5.4v49.2" />
        <ns0:path class="st0" d="M45.4,5.4v49.2" />
      </ns0:g>
      <ns0:path class="st0" d="M0,30h45.4" />
      <ns0:path class="st0" d="M100,30h-44.9" />
    </g>
    <g transform="matrix(1.0000,0.0000,0.0000,1.0000,112.4,22.0)">
      <style>
      .st0 {
        stroke-linejoin: bevel;
      }

      .st0, .st1, .st2 {
        stroke: #000;
        stroke-linecap: round;
      }

      .st0, .st1, .st2, .st3 {
        stroke-width: 3px;
      }

      .st0, .st1, .st3 {
        fill: none;
      }

      .st1, .st2 {
        stroke-linejoin: round;
      }

      .st4 {
        fill: #c66;
      }

      .st3 {
        stroke: #231f20;
        stroke-miterlimit: 10;
      }
    </style>
      <ns0:g>
        <ns0:path class="st3" d="M63.6,66.1v6.4c0,2.7-2.2,4.9-4.9,4.9H19.7c-2.7,0-4.9-2.2-4.9-4.9V27.5c0-2.7,2.2-4.9,4.9-4.9h39c2.7,0,4.9,2.2,4.9,4.9v6.4" />
        <ns0:path class="st3" d="M63.6,66.1" />
        <ns0:path class="st3" d="M63.6,33.8" />
        <ns0:g>
          <ns0:g>
            <ns0:path class="st0" d="M63.6,56.9c7.7,1.5,7.7,7.7,0,9.2" />
            <ns0:path class="st0" d="M63.6,56.9c-7.7-1.5-7.7,3.1,0,1.5" />
            <ns0:path class="st0" d="M63.6,33.8c7.7,1.5,7.7,7.7,0,9.2" />
            <ns0:path class="st0" d="M63.6,41.5c7.7,1.5,7.7,7.7,0,9.2" />
            <ns0:path class="st0" d="M63.6,49.2c7.7,1.5,7.7,7.7,0,9.2" />
            <ns0:path class="st0" d="M63.6,41.5c-7.7-1.5-7.7,3.1,0,1.5" />
            <ns0:path class="st0" d="M63.6,49.2c-7.7-1.5-7.7,3.1,0,1.5" />
          </ns0:g>
          <ns0:g>
            <ns0:line class="st1" x1="5.7" y1="43.5" x2="24" y2="54.3" />
            <ns0:line class="st1" x1="24" y1="43.5" x2="5.7" y2="54.3" />
          </ns0:g>
        </ns0:g>
      </ns0:g>
      <ns0:path class="st2" d="M39.7,98.5v-21.1" />
      <ns0:path class="st2" d="M39.7,22.1V0" />
    </g>
    <path d="M52.0,116.0 L52.0,122.0 L152.0,122.0 L152.0,116.0" fill="none" stroke="#000000" stroke-width="3.0" stroke-linecap="round" stroke-linejoin="round" />
    <path d="M52.0,28.0 L52.0,22.0 L152.1,22.0 L152.1,28.0" fill="none" stroke="#000000" stroke-width="3.0" stroke-linecap="round" stroke-linejoin="round" />
  </g>
  <g id="ports">
    <circle id="port:left" cx="52.0" cy="22.0" r="3" fill="#c66" />
    <circle id="port:right" cx="52.0" cy="122.0" r="3" fill="#c66" />
    <circle id="port:bot" cx="152.1" cy="22.0" r="3" fill="#c66" />
    <circle id="port:top" cx="152.0" cy="122.0" r="3" fill="#c66" />
  </g>
</svg>