<?xml version='1.0' encoding='utf-8'?>
<svg xmlns:ns0="http://www.w3.org/2000/svg" xmlns="http://www.w3.org/2000/svg" viewBox="0 0 174.0 194.0">
  <g id="artwork">
    <g transform="matrix(1.0000,0.0000,0.0000,1.0000,69.0,122.0)">
      <style>
      .st0 {
        stroke-linejoin: bevel;
      }

      .st0, .st1 {
        fill: none;
        stroke: #000;
        stroke-linecap: round;
        stroke-width: 3px;
      }

      .st1 {
        stroke-linejoin: round;
      }

      .st2 {
        fill: #c66;
      }
    </style>
      <ns0:g>
        <ns0:path class="st0" d="M8.2,21.2h29.5" />
        <ns0:path class="st0" d="M14.7,27.7h16.6" />
        <ns0:path class="st0" d="M21.1,34.1h3.7" />
      </ns0:g>
      <ns0:line class="st1" x1="23" x2="23" y2="21.2" />
    </g>
    <g transform="matrix(0.0000,1.0000,-1.0000,0.0000,82.0,22.0)">
      <style>
      .st0 {
        fill: none;
        stroke: #000;
        stroke-linecap: round;
        stroke-linejoin: bevel;
        stroke-width: 3px;
      }

      .st1 {
        fill: #c66;
      }
    </style>
      <ns0:g>
        <ns0:path class="st0" d="M54.6,5.4v49.2" />
        <ns0:path class="st0" d="M45.4,5.4v49.2" />
      </ns0:g>
      <ns0:path class="st0" d="M0,30h45.4" />
      <ns0:path class="st0" d="M100,30h-44.9" />
    </g>
    <g transform="matrix(0.0000,1.0000,-1.0000,0.0000,152.0,22.0)">
      <style>
      .st0 {
        fill: none;
        stroke: #000;
        stroke-linecap: round;
        stroke-linejoin: round;
        stroke-width: 3px;
      }

      .st1 {
        fill: #c66;
      }

      .st2 {
        fill: #fff;
        stroke: #999;
        stroke-miterlimit: 10;
        stroke-width: .5px;
      }

      .st3 {
        display: none;
      }
    </style>
      <ns0:path class="st0" d="M61.6,20c2.6-13.1,12.9-13.1,15.4,0M61.6,20c-2.6,13.1,5.1,13.1,2.6,0M23,20c2.6-13.1,12.9-13.1,15.4,0M35.9,20c2.6-13.1,12.9-13.1,15.4,0M48.7,20c2.6-13.1,12.9-13.1,15.4,0M35.9,20c-2.6,13.1,5.1,13.1,2.6,0M48.7,20c-2.6,13.1,5.1,13.1,2.6,0M77,20h0M23,20h0" />
      <ns0:line class="st0" x1="23" y1="20" y2="20" />
      <ns0:line class="st0" x1="100" y1="20" x2="77" y2="20" />
    </g>
    <path d="M52.0,28.0 L52.0,22.0 L132.0,22.0 L132.0,28.0" fill="none" stroke="#000000" stroke-width="3.0" stroke-linecap="round" stroke-linejoin="round" />
    <path d="M52.0,116.0 L52.0,122.0 L132.0,122.0 L132.0,116.0" fill="none" stroke="#000000" stroke-width="3.0" stroke-linecap="round" stroke-linejoin="round" />
  </g>
  <g id="ports">
    <circle id="port:left" cx="92.0" cy="122.0" r="3" fill="#c66" />
  </g>
</svg>