<?xml version="1.0" encoding="UTF-8"?>
<svg id="Layer_1" xmlns="http://www.w3.org/2000/svg" version="1.1" viewBox="0 0 100 40">
  <!-- Generator: Adobe Illustrator 30.2.1, SVG Export Plug-In . SVG Version: 2.1.1 Build 1)  -->
  <defs>
    <style>
      .st0 {
        fill: none;
        stroke: #000;
        stroke-linecap: round;
        stroke-linejoin: round;
        stroke-width: 3px;
      }

      .st1 {
        fill: #c66;
      }

      .st2 {
        fill: #fff;
        stroke: #999;
        stroke-miterlimit: 10;
        stroke-width: .5px;
      }

      .st3 {
        display: none;
      }
    </style>
  </defs>
  <g id="guides" class="st3">
    <rect class="st2" y="20" width="50" height="20"/>
  </g>
  <g id="artwork">
    <path class="st0" d="M61.6,20c2.6-13.1,12.9-13.1,15.4,0M61.6,20c-2.6,13.1,5.1,13.1,2.6,0M23,20c2.6-13.1,12.9-13.1,15.4,0M35.9,20c2.6-13.1,12.9-13.1,15.4,0M48.7,20c2.6-13.1,12.9-13.1,15.4,0M35.9,20c-2.6,13.1,5.1,13.1,2.6,0M48.7,20c-2.6,13.1,5.1,13.1,2.6,0M77,20h0M23,20h0"/>
  </g>
  <g id="leads">
    <line class="st0" x1="23" y1="20" y2="20"/>
    <line class="st0" x1="100" y1="20" x2="77" y2="20"/>
  </g>
  <g id="ports">
    <circle id="port:left" class="st1" cy="20" r="3"/>
    <circle id="port:right" class="st1" cx="100" cy="20" r="3"/>
  </g>
</svg>