<?xml version="1.0" encoding="UTF-8"?>
<svg id="Layer_1" xmlns="http://www.w3.org/2000/svg" xmlns:xlink="http://www.w3.org/1999/xlink" version="1.1" viewBox="0 0 80 100">
  <!-- Generator: Adobe Illustrator 30.2.1, SVG Export Plug-In . SVG Version: 2.1.1 Build 1)  -->
  <defs>
    <style>
      .st0, .st1, .st2, .st3, .st4, .st5 {
        fill: none;
      }

      .st1 {
        stroke-linejoin: bevel;
      }

      .st1, .st2, .st6 {
        stroke: #000;
        stroke-width: 3px;
      }

      .st1, .st2, .st6, .st3, .st4, .st5 {
        stroke-linecap: round;
      }

      .st2, .st6 {
        stroke-linejoin: round;
      }

      .st7 {
        fill: #c66;
      }

      .st3 {
        stroke-dasharray: 2.9 2.9;
      }

      .st3, .st4, .st5 {
        stroke: #933;
        stroke-miterlimit: 10;
        stroke-width: 1.5px;
      }

      .st8 {
        fill: #933;
      }

      .st9 {
        clip-path: url(#clippath);
      }

      .st5 {
        stroke-dasharray: 3.1 3.1;
      }
    </style>
    <clipPath id="clippath">
      <rect class="st0" x="31.9" y="40.3" width="17.8" height="21"/>
    </clipPath>
  </defs>
  <g id="artwork">
    <g>
      <g>
        <path class="st1" d="M12.7,50.5"/>
        <path class="st1" d="M40.1,77.9"/>
        <path class="st1" d="M67.5,50.5"/>
        <path class="st1" d="M12.7,50.5c0-15.1,12.3-27.4,27.4-27.4s27.4,12.3,27.4,27.4"/>
        <line class="st2" x1="3.6" y1="45.4" x2="21.9" y2="56.1"/>
        <line class="st2" x1="21.9" y1="45.4" x2="3.6" y2="56.1"/>
        <line class="st2" x1="58.3" y1="45.4" x2="76.6" y2="56.1"/>
        <line class="st2" x1="76.6" y1="45.4" x2="58.3" y2="56.1"/>
      </g>
      <g>
        <g>
          <path class="st4" d="M10.8,19.5c.4.3.7.7,1,1.1"/>
          <path class="st5" d="M13.8,22.9c6.1,8,9.9,20.1,9.9,33.7s-1,17.9-2.8,24.9"/>
          <path class="st4" d="M20.6,83c-.2.5-.3,1-.5,1.4"/>
          <polygon class="st8" points="10.7 23.9 1.8 13.7 14.6 18.1 10.7 23.9"/>
        </g>
        <g>
          <path class="st4" d="M25.4,10.5c.2.4.5.9.7,1.3"/>
          <path class="st3" d="M27.2,14.5c4.3,10.1,7,25.3,7,42.2s-.8,22.1-2.1,30.6"/>
          <path class="st4" d="M31.9,88.7c0,.5-.2,1-.3,1.5"/>
          <polygon class="st8" points="24 14.7 18.4 2.5 29.4 10.3 24 14.7"/>
        </g>
      </g>
      <g>
        <g>
          <path class="st4" d="M69.4,19.5c-.4.3-.7.7-1,1.1"/>
          <path class="st5" d="M66.4,22.9c-6.1,8-9.9,20.1-9.9,33.7s1,17.9,2.8,24.9"/>
          <path class="st4" d="M59.6,83c.2.5.3,1,.5,1.4"/>
          <polygon class="st8" points="65.6 18.1 78.4 13.7 69.5 23.9 65.6 18.1"/>
        </g>
        <g>
          <path class="st4" d="M54.8,10.5c-.2.4-.5.9-.7,1.3"/>
          <path class="st3" d="M53,14.5c-4.3,10.1-7,25.3-7,42.2s.8,22.1,2.1,30.6"/>
          <path class="st4" d="M48.3,88.7c0,.5.2,1,.3,1.5"/>
          <polygon class="st8" points="50.8 10.3 61.8 2.5 56.2 14.7 50.8 10.3"/>
        </g>
      </g>
      <path class="st1" d="M40.1,77.9c-15.1,0-27.4-12.3-27.4-27.4"/>
      <path class="st1" d="M67.5,50.5c0,15.1-12.3,27.4-27.4,27.4"/>
      <g class="st9">
        <path d="M41.1,46c3.4.4,4,2.6,4,4.4s-.4,4-4,4.4v-8.8M39.2,54.8c-3.4-.5-3.8-2.9-3.8-4.4s.2-3.9,3.8-4.4v8.8ZM41.1,55.4c3.8-.3,6.4-2.6,6.4-5s-2.7-4.6-6.4-4.9v-1.4c0-.8,0-1.1,2.3-1.1h.8v-.8h-8.2v.8h.8c2.3,0,2.3.2,2.3,1.1v1.4c-3.7.3-6.2,2.5-6.2,4.9s2.6,4.6,6.2,5v1.4c0,.8,0,1.1-2.3,1.1h-.8v.7h8.2v-.7h-.8c-2.3,0-2.3-.3-2.3-1.1v-1.4Z"/>
      </g>
    </g>
  </g>
  <g id="leads">
    <path class="st6" d="M40.1,23.1V0"/>
    <path class="st6" d="M40,100v-22.1"/>
  </g>
  <g id="ports">
    <circle id="port:bot" class="st7" cx="40.1" r="3"/>
    <circle id="port:top" class="st7" cx="40.1" cy="100" r="3"/>
  </g>
</svg>