<?xml version="1.0" encoding="UTF-8"?>
<svg id="Layer_1" xmlns="http://www.w3.org/2000/svg" version="1.1" viewBox="0 0 120 100">
  <!-- Generator: Adobe Illustrator 30.2.1, SVG Export Plug-In . SVG Version: 2.1.1 Build 1)  -->
  <defs>
    <style>
      .st0 {
        stroke-linejoin: bevel;
      }

      .st0, .st1, .st2 {
        stroke-linecap: round;
      }

      .st0, .st1, .st2, .st3, .st4 {
        stroke-width: 3px;
      }

      .st0, .st1, .st2, .st4 {
        stroke: #000;
      }

      .st0, .st1, .st3, .st4 {
        fill: none;
      }

      .st1, .st2 {
        stroke-linejoin: round;
      }

      .st5 {
        fill: #c66;
      }

      .st3 {
        stroke: #231f20;
      }

      .st3, .st4 {
        stroke-miterlimit: 10;
      }
    </style>
  </defs>
  <g id="leads">
    <path class="st2" d="M59.7,98.5v-21.1"/>
    <path class="st2" d="M59.7,22.1V0"/>
  </g>
  <g id="ports">
    <circle id="port:bot" class="st5" cx="59.7" r="3"/>
    <circle id="port:top" class="st5" cx="59.6" cy="100" r="3"/>
  </g>
  <g id="artwork">
    <g>
      <path class="st4" d="M59.7,77.4V22.6"/>
      <path class="st3" d="M108.5,66.1"/>
      <path class="st3" d="M108.5,33.8"/>
      <g>
        <g>
          <path class="st0" d="M108.5,56.9c7.7,1.5,7.7,7.7,0,9.2"/>
          <path class="st0" d="M108.5,56.9c-7.7-1.5-7.7,3.1,0,1.5"/>
          <path class="st0" d="M108.5,33.8c7.7,1.5,7.7,7.7,0,9.2"/>
          <path class="st0" d="M108.5,41.5c7.7,1.5,7.7,7.7,0,9.2"/>
          <path class="st0" d="M108.5,49.2c7.7,1.5,7.7,7.7,0,9.2"/>
          <path class="st0" d="M108.5,41.5c-7.7-1.5-7.7,3.1,0,1.5"/>
          <path class="st0" d="M108.5,49.2c-7.7-1.5-7.7,3.1,0,1.5"/>
        </g>
        <g>
          <line class="st1" x1="50.6" y1="43.5" x2="68.9" y2="54.3"/>
          <line class="st1" x1="68.9" y1="43.5" x2="50.6" y2="54.3"/>
        </g>
      </g>
    </g>
    <g>
      <path class="st4" d="M15.8,33.9v-6.4c0-2.7,2.2-4.9,4.9-4.9h39s43.9,0,43.9,0c2.7,0,4.9,2.2,4.9,4.9v6.4"/>
      <path class="st4" d="M108.5,66.1v6.4c0,2.7-2.2,4.9-4.9,4.9,0,0-43.9,0-43.9,0H20.7c-2.7,0-4.9-2.2-4.9-4.9v-6.4"/>
      <path class="st3" d="M15.8,66.1"/>
      <path class="st3" d="M15.8,33.8"/>
      <g>
        <path class="st0" d="M15.8,66.1c-7.7-1.5-7.7-7.7,0-9.2"/>
        <path class="st0" d="M15.8,58.4c7.7,1.6,7.7-3,0-1.5"/>
        <path class="st0" d="M15.8,43c-7.7-1.5-7.7-7.7,0-9.2"/>
        <path class="st0" d="M15.8,50.7c-7.7-1.5-7.7-7.7,0-9.2"/>
        <path class="st0" d="M15.8,58.4c-7.7-1.5-7.7-7.7,0-9.2"/>
        <path class="st0" d="M15.8,43c7.7,1.6,7.7-3,0-1.5"/>
        <path class="st0" d="M15.8,50.7c7.7,1.6,7.7-3,0-1.5"/>
      </g>
    </g>
  </g>
</svg>