<?xml version="1.0" encoding="UTF-8"?>
<svg id="Layer_1" xmlns="http://www.w3.org/2000/svg" version="1.1" viewBox="0 0 40 100">
  <!-- Generator: Adobe Illustrator 30.2.1, SVG Export Plug-In . SVG Version: 2.1.1 Build 1)  -->
  <defs>
    <style>
      .st0, .st1, .st2 {
        fill: none;
      }

      .st1 {
        stroke-linejoin: bevel;
      }

      .st1, .st2 {
        stroke: #000;
        stroke-linecap: round;
        stroke-width: 3px;
      }

      .st2 {
        stroke-linejoin: round;
      }

      .st3 {
        fill: #c66;
      }

      .st4 {
        fill: #fff;
        stroke: #999;
        stroke-miterlimit: 10;
        stroke-width: .5px;
      }

      .st5 {
        display: none;
      }
    </style>
  </defs>
  <g id="guides" class="st5">
    <rect class="st4" x="-30" y="50" width="50" height="20"/>
  </g>
  <g id="ports">
    <circle id="port:left" class="st3" cx="19.8" r="3"/>
    <circle id="port:right" class="st3" cx="19.8" cy="100" r="3"/>
  </g>
  <g id="artwork">
    <path class="st2" d="M19.8,23c13.1,2.6,13.1,12.9,0,15.4-13.1,2.5-13.1-5.1,0-2.5,13.1,2.6,13.1,12.9,0,15.4-13.1,2.5-13.1-5.2,0-2.6,13.1,2.6,13.1,12.9,0,15.4-13.1,2.5-13.1-5.1,0-2.5,13.1,2.6,13.1,12.9,0,15.4M19.8,77h0M19.8,23h0"/>
    <g>
      <g>
        <line class="st1" x1="7.4" y1="91.2" x2="34.8" y2="18.5"/>
        <polygon points="38.1 23.3 40 4.9 29.2 19.9 38.1 23.3"/>
      </g>
      <line class="st0" x1="7.4" y1="91.2" x2="34.8" y2="18.5"/>
      <line class="st0" x1="7.4" y1="91.2" x2="34.8" y2="18.5"/>
    </g>
  </g>
  <g id="leads">
    <line class="st2" x1="19.8" y1="23" x2="19.8"/>
    <line class="st2" x1="19.8" y1="100" x2="19.8" y2="77"/>
  </g>
</svg>