<?xml version="1.0" encoding="UTF-8"?>
<svg id="Layer_1" xmlns="http://www.w3.org/2000/svg" version="1.1" viewBox="0 0 100 100">
  <!-- Generator: Adobe Illustrator 30.6.0, SVG Export Plug-In . SVG Version: 2.1.4 Build 109)  -->
  <defs>
    <style>
      .st0 {
        stroke-linejoin: round;
        stroke-width: 3px;
      }

      .st0, .st1, .st2 {
        fill: none;
      }

      .st0, .st2 {
        stroke: #000;
        stroke-linecap: round;
      }

      .st3 {
        fill: #c66;
      }

      .st1 {
        stroke: #999;
        stroke-miterlimit: 10;
        stroke-width: .2px;
      }

      .st2 {
        stroke-linejoin: bevel;
        stroke-width: 1.5px;
      }

      .st4 {
        display: none;
      }
    </style>
  </defs>
  <g id="guides" class="st4">
    <rect class="st1" x="0.1" y="50.1" width="50" height="50"/>
  </g>
  <g id="artwork">
    <g>
      <line class="st2" x1="43.7" y1="0.9" x2="43.7" y2="99.3"/>
      <line class="st2" x1="50.2" y1="0.9" x2="50.2" y2="99.3"/>
      <line class="st2" x1="56.6" y1="0.9" x2="56.6" y2="99.3"/>
    </g>
    <path class="st0" d="M 80.1 17.7 c -15.4 3.1 -15.4 15.4 0 18.5 s 15.4 -6.3 0 -3.2 -15.4 15.4 0 18.5 15.4 -6.2 0 -3.1 c -15.4 3.1 -15.4 15.4 0 18.5 s 15.4 -6.2 0 -3.1 c -15.4 3.1 -15.4 15.4 0 18.5"/>
  </g>
  <g id="ports">
    <circle id="port:left" class="st3" cx="80.1" cy="100" r="3"/>
    <circle id="port:right" class="st3" cx="20.1" cy="100" r="3"/>
    <circle id="port:left1" class="st3" cx="80.1" cy="0" r="3"/>
    <circle id="port:right1" class="st3" cx="20.2" cy="0" r="3"/>
  </g>
  <g id="leads">
    <path class="st0" d="M 80.1 82.3 v 17.7"/>
    <path class="st0" d="M 80.1 0 v 17.7"/>
    <path class="st0" d="M 20.1 82.3 c 15.4 -3.1 15.4 -15.4 0 -18.5 -15.4 -3.1 -15.4 6.2 0 3.1 s 15.4 -15.4 0 -18.5 c -15.4 -3.1 -15.4 6.2 0 3.1 s 15.4 -15.4 0 -18.5 -15.4 6.3 0 3.2 15.4 -15.4 0 -18.5"/>
    <path class="st0" d="M 20.1 100 v -17.7"/>
    <path class="st0" d="M 20.1 17.7 V 0"/>
  </g>
</svg>