<?xml version="1.0" encoding="UTF-8"?>
<svg id="Layer_1" xmlns="http://www.w3.org/2000/svg" xmlns:xlink="http://www.w3.org/1999/xlink" version="1.1" viewBox="0 0 120 100">
  <!-- Generator: Adobe Illustrator 30.2.1, SVG Export Plug-In . SVG Version: 2.1.1 Build 1)  -->
  <defs>
    <style>
      .st0, .st1, .st2, .st3, .st4 {
        fill: none;
      }

      .st1 {
        stroke-linecap: round;
        stroke-width: 3px;
      }

      .st1, .st2, .st3 {
        stroke: #000;
      }

      .st1, .st3 {
        stroke-linejoin: round;
      }

      .st5 {
        fill: #c66;
      }

      .st2 {
        stroke-opacity: 0;
      }

      .st2, .st4 {
        stroke-miterlimit: 10;
      }

      .st6 {
        clip-path: url(#clippath-1);
      }

      .st3 {
        stroke-width: 6px;
      }

      .st4 {
        stroke: #999;
        stroke-width: .2px;
      }

      .st7 {
        display: none;
      }

      .st8 {
        clip-path: url(#clippath);
      }
    </style>
    <clipPath id="clippath">
      <rect class="st0" x="45.3" y="-20.2" width="100" height="26"/>
    </clipPath>
    <clipPath id="clippath-1">
      <rect class="st0" x="56.9" y="-25.2" width="20.5" height="79.6" transform="translate(22.8 67.1) rotate(-62.1)"/>
    </clipPath>
  </defs>
  <g id="guides" class="st7">
    <rect class="st4" x="6.2" y="50.1" width="50" height="50"/>
  </g>
  <g id="ports">
    <circle id="port:2" class="st5" cx="120" cy="50" r="3"/>
    <circle id="port:1" class="st5" cy="50" r="3"/>
  </g>
  <g id="artwork">
    <polygon class="st1" points="103.3 50 17.8 4.5 17.8 95.5 103.3 50"/>
  </g>
  <g id="leads">
    <line class="st3" y1="50" x2="17.6" y2="50"/>
    <line class="st3" x1="100" y1="50" x2="120" y2="50"/>
  </g>
  <polygon class="st2" points="95.2 -7.1 95.2 -7.1 95.2 -7.1 95.2 -7.1 95.2 -7.1 95.2 -7.1 95.2 -7.1 95.2 -7.1 95.2 -7.1 95.2 -7.1 95.2 -7.1 95.2 -7.1 95.2 -7.1 95.2 -7.1 95.2 -7.1 95.2 -7.1 95.2 -7.1 95.2 -7.1 95.2 -7.1 95.2 -7.1 95.2 -7.1 95.2 -7.1 95.2 -7.1 95.2 -7.1 95.2 -7.1 95.2 -7.1 95.2 -7.1 95.2 -7.1 95.2 -7.1 95.2 -7.1 95.2 -7.1 95.2 -7.1 95.2 -7.1 95.2 -7.1 95.2 -7.1 95.2 -7.1 95.2 -7.1 95.2 -7.1 95.2 -7.1 95.2 -7.1 95.2 -7.1 95.2 -7.1 95.2 -7.1 95.2 -7.1 95.2 -7.1 95.2 -7.1 95.2 -7.1 95.2 -7.1 95.2 -7.1 95.2 -7.1 95.2 -7.1 95.2 -7.1 95.2 -7.1 95.2 -7.1 95.2 -7.1 95.2 -7.1 95.2 -7.1 95.2 -7.1 95.2 -7.1 95.2 -7.1 95.2 -7.1 95.2 -7.1 95.2 -7.1 95.2 -7.1 95.2 -7.1 95.2 -7.1 95.2 -7.1 95.2 -7.1 95.2 -7.1 95.2 -7.1 95.2 -7.1 95.2 -7.1 95.2 -7.1 95.2 -7.1 95.2 -7.1 95.2 -7.1 95.2 -7.1 95.2 -7.1 95.2 -7.1 95.2 -7.1 95.2 -7.1 95.2 -7.1 95.2 -7.1 95.2 -7.1 95.2 -7.1 95.2 -7.1 95.2 -7.1 95.2 -7.1 95.2 -7.1 95.2 -7.1 95.2 -7.1 95.2 -7.1 95.2 -7.1 95.2 -7.1 95.2 -7.1 95.2 -7.1 95.2 -7.1 95.2 -7.1 95.2 -7.1 95.2 -7.1 95.2 -7.1 95.2 -7.1 95.2 -7.1 95.2 -7.1 95.2 -7.1"/>
  <g class="st8">
    <path class="st2" d="M95.3-7.3h0Z"/>
  </g>
  <g class="st6">
    <g>
      <path d="M44.5-6.2l2.2,1.2c.3.2.6.3.9.5l3.4,1.8.9-1.6-15.3-8.1-.9,1.6,3.4,1.8c.3.2.6.3.9.5l2.3,1.2-8.3,15.7,2.2,1.2,8.3-15.7"/>
      <path d="M76.3,8.5l-1.8-1-6.5,6.7c-1.8,1.9-5.3,5.5-6.1,6.7h0s.6-1.4,1.9-8.1l2.1-9.9-2-1.1-6.4,6.7c-1.6,1.6-5.2,5.4-6.1,6.7h0c.4-1.1,1.1-3.9,1.3-4.8l1-4.8,1.7-8.2-2.2-1.1-4.2,20.2,2,1.1,7.2-7.4c1.5-1.6,4.6-4.7,5.4-6h0c-.3.8-1,3.5-1.6,6.3l-2.5,11.6,2.2,1.2,14.4-14.8"/>
      <path d="M84.1,14.4c2.8,1.5,3.7,3.9,2.5,6.1s-3.5,2.8-6.4,1.3l-3.6-1.9,3.9-7.3,3.6,1.9M80.1,23.5c3.1,1.7,7,.8,8.5-2s.2-6.4-3.3-8.3l-6.3-3.3-9.3,17.5,2.2,1.2,3.9-7.3,4.2,2.2h.1Z"/>
      <path d="M96.2,33l-6.2-3.3,4.1-3.7c1.3-1.2,3.2-2.9,3.9-3.8h0c0,.4-.3,1.1-.6,3.1l-1.1,7.7M100.2,21.1l-2.2-1.2-15.9,14,1.9,1,4.7-4.1,7.3,3.9-.8,6.2,2.3,1.2s2.7-21,2.7-21Z"/>
    </g>
  </g>
</svg>