<?xml version="1.0" encoding="UTF-8"?>
<svg id="Layer_1" xmlns="http://www.w3.org/2000/svg" version="1.1" viewBox="0 0 120 40">
  <!-- Generator: Adobe Illustrator 30.2.1, SVG Export Plug-In . SVG Version: 2.1.1 Build 1)  -->
  <defs>
    <style>
      .st0 {
        fill: #c66;
      }

      .st1 {
        stroke: #c03;
        stroke-miterlimit: 10;
        stroke-width: .9px;
      }

      .st1, .st2, .st3, .st4 {
        fill: none;
      }

      .st2 {
        stroke-width: 6px;
      }

      .st2, .st3 {
        stroke-linecap: round;
      }

      .st2, .st3, .st5, .st4, .st6 {
        stroke: #231f20;
        stroke-linejoin: round;
      }

      .st3 {
        stroke-width: 3px;
      }

      .st5 {
        stroke-width: 1.9px;
      }

      .st5, .st6 {
        fill: #cccbcb;
      }

      .st4, .st6 {
        stroke-width: 1.6px;
      }
    </style>
  </defs>
  <g id="ports">
    <circle id="port:left" class="st0" cy="20" r="3"/>
    <circle id="port:right" class="st0" cx="120" cy="20" r="3"/>
  </g>
  <g id="stretch">
    <line id="stretch:v" class="st1" x1="60" x2="60" y2="40"/>
  </g>
  <g id="leads">
    <line class="st2" x1="4.5" y1="20" y2="20"/>
    <line class="st2" x1="120" y1="20" x2="110.2" y2="20"/>
  </g>
  <g id="artwork">
    <g>
      <path class="st6" d="M110.5,33.6c-3.8,0-7-6.1-7-13.6s3.1-13.6,7-13.6H12.5c-3.8,0-7,6.1-7,13.6s3.1,13.6,7,13.6h98Z"/>
      <g>
        <path class="st4" d="M117.1,24.1c-.9,5.5-3.5,9.5-6.6,9.5s-7-6.1-7-13.6,3.1-13.6,7-13.6,5.8,4,6.6,9.5"/>
        <path class="st5" d="M117.1,24.1"/>
      </g>
      <path class="st3" d="M111.3,20"/>
    </g>
  </g>
</svg>